<svg xmlns="http://www.w3.org/2000/svg" xmlns:xlink="http://www.w3.org/1999/xlink" viewBox="0 0 747.04 561.18"><defs><style>.cls-1,.cls-12,.cls-14,.cls-15,.cls-16,.cls-17,.cls-18,.cls-19,.cls-23,.cls-30,.cls-4,.cls-42,.cls-49,.cls-5,.cls-50,.cls-51,.cls-58,.cls-59,.cls-60,.cls-7,.cls-76{fill:none;}.cls-2,.cls-6,.cls-77,.cls-79{fill:#5edfff;}.cls-2,.cls-3,.cls-4,.cls-5,.cls-6{stroke:#a8894d;}.cls-14,.cls-15,.cls-16,.cls-17,.cls-18,.cls-19,.cls-2,.cls-23,.cls-28,.cls-29,.cls-30,.cls-49,.cls-50,.cls-51,.cls-60,.cls-76,.cls-82,.cls-91{stroke-linecap:round;stroke-linejoin:round;}.cls-12,.cls-18,.cls-19,.cls-2,.cls-23,.cls-28,.cls-3,.cls-4,.cls-42,.cls-49,.cls-5,.cls-50,.cls-51,.cls-59,.cls-6,.cls-60,.cls-76,.cls-79,.cls-80,.cls-82,.cls-90,.cls-91{stroke-width:0.3px;}.cls-3,.cls-61,.cls-80{fill:#ffe75e;}.cls-12,.cls-3,.cls-4,.cls-42,.cls-5,.cls-58,.cls-59,.cls-6,.cls-79,.cls-80,.cls-90{stroke-miterlimit:10;}.cls-4{stroke-dasharray:0.98 1.97;}.cls-20,.cls-7{mix-blend-mode:multiply;}.cls-8{isolation:isolate;}.cls-28,.cls-44,.cls-53,.cls-9{fill:#222a31;}.cls-10{clip-path:url(#clip-path);}.cls-11{opacity:0.15;}.cls-12,.cls-17,.cls-19,.cls-49,.cls-50,.cls-51{stroke:#fff;}.cls-13{clip-path:url(#clip-path-2);}.cls-14,.cls-18,.cls-28,.cls-30,.cls-42,.cls-58,.cls-79,.cls-80,.cls-82,.cls-90,.cls-91{stroke:#ccad71;}.cls-14{stroke-width:23px;}.cls-15,.cls-23,.cls-59{stroke:#222a31;}.cls-15{stroke-width:22px;}.cls-16{stroke:#4a493f;stroke-width:20px;}.cls-17{stroke-width:6px;opacity:0.08;}.cls-19{stroke-dasharray:1 2;}.cls-20{fill:#c7c9c9;}.cls-21{fill:url(#Unbenannter_Verlauf_12);}.cls-22,.cls-64,.cls-73{fill:#fff;}.cls-24{clip-path:url(#clip-path-3);}.cls-25{fill:url(#Unbenannter_Verlauf_12-2);}.cls-26,.cls-31,.cls-38,.cls-39,.cls-62,.cls-82{fill:#ccad71;}.cls-27{fill:url(#Unbenannter_Verlauf_15);}.cls-29{fill:#4a493f;stroke:#c7c9c9;}.cls-29,.cls-30{stroke-width:8.15px;}.cls-31,.cls-38,.cls-39,.cls-44{font-size:8px;}.cls-31,.cls-38,.cls-39,.cls-64,.cls-73{font-family:Lato-Regular, Lato;}.cls-31{letter-spacing:0.03em;}.cls-32{letter-spacing:0em;}.cls-33{letter-spacing:0.01em;}.cls-34{letter-spacing:-0.04em;}.cls-35{letter-spacing:0.07em;}.cls-36{letter-spacing:0.02em;}.cls-37{letter-spacing:0.03em;}.cls-38{letter-spacing:0.03em;}.cls-39{letter-spacing:0.12em;}.cls-40{letter-spacing:0.07em;}.cls-41{letter-spacing:0.05em;}.cls-43{fill:url(#Unbenannter_Verlauf_15-2);}.cls-44,.cls-53,.cls-62{font-family:Lato-Bold, Lato;font-weight:700;}.cls-44{letter-spacing:-0.05em;}.cls-45{letter-spacing:0.05em;}.cls-46{letter-spacing:0.02em;}.cls-47{letter-spacing:0.05em;}.cls-48{letter-spacing:0.04em;}.cls-50{stroke-dasharray:1.03 2.06;}.cls-51{stroke-dasharray:0.99 1.98;}.cls-52{clip-path:url(#clip-path-4);}.cls-53{font-size:13px;letter-spacing:0.12em;}.cls-54{letter-spacing:0.15em;}.cls-55{letter-spacing:0.11em;}.cls-56{letter-spacing:0.08em;}.cls-57{letter-spacing:0.15em;}.cls-58{stroke-width:0.65px;}.cls-60{stroke:#ffe75e;}.cls-62{font-size:13.5px;letter-spacing:0.1em;}.cls-63,.cls-69{font-size:17px;}.cls-63,.cls-71{letter-spacing:0.02em;}.cls-64,.cls-73{font-size:9.5px;}.cls-64,.cls-74{letter-spacing:0.07em;}.cls-65{letter-spacing:0.05em;}.cls-66{letter-spacing:0.04em;}.cls-67{letter-spacing:0.07em;}.cls-68{letter-spacing:0.06em;}.cls-69{letter-spacing:-0.06em;}.cls-70{letter-spacing:0.01em;}.cls-72{letter-spacing:0.05em;}.cls-73{letter-spacing:0.04em;}.cls-75{letter-spacing:0.06em;}.cls-76{stroke:#5edfff;}.cls-78{clip-path:url(#clip-path-6);}.cls-81{fill:url(#Unbenannter_Verlauf_22);}.cls-83{fill:url(#Unbenannter_Verlauf_12-3);}.cls-84{fill:url(#Unbenannter_Verlauf_12-4);}.cls-85{fill:url(#Unbenannter_Verlauf_12-5);}.cls-86{clip-path:url(#clip-path-7);}.cls-87{clip-path:url(#clip-path-8);}.cls-88{clip-path:url(#clip-path-9);}.cls-89{clip-path:url(#clip-path-10);}.cls-90,.cls-91{fill:#635a49;}</style><clipPath id="clip-path"><rect class="cls-1" width="747.04" height="561.18"/></clipPath><clipPath id="clip-path-2"><rect class="cls-1" x="504.58" y="284.73" width="205.66" height="96.99"/></clipPath><linearGradient id="Unbenannter_Verlauf_12" x1="248.5" y1="265.08" x2="499.3" y2="265.08" gradientUnits="userSpaceOnUse"><stop offset="0.2" stop-color="#ccad71" stop-opacity="0.3"/><stop offset="0.39" stop-color="#ccad71" stop-opacity="0.27"/><stop offset="0.62" stop-color="#ccad71" stop-opacity="0.2"/><stop offset="0.87" stop-color="#ccad71" stop-opacity="0.08"/><stop offset="1" stop-color="#ccad71" stop-opacity="0"/></linearGradient><clipPath id="clip-path-3"><rect class="cls-1" x="199.87" y="226.46" width="112.1" height="92.24"/></clipPath><linearGradient id="Unbenannter_Verlauf_12-2" x1="603.69" y1="216.51" x2="642.24" y2="216.51" xlink:href="#Unbenannter_Verlauf_12"/><linearGradient id="Unbenannter_Verlauf_15" x1="620.87" y1="196.03" x2="620.87" y2="220.43" xlink:href="#Unbenannter_Verlauf_12"/><linearGradient id="Unbenannter_Verlauf_15-2" x1="370.12" y1="194.66" x2="370.12" y2="229.1" xlink:href="#Unbenannter_Verlauf_12"/><clipPath id="clip-path-4"><circle class="cls-1" cx="297.42" cy="303.24" r="10.54"/></clipPath><clipPath id="clip-path-6"><path class="cls-1" d="M117.37,179.76c0,3.3-1.33,5.87-4.68,5.87h-59V175.24h63.72Z"/></clipPath><radialGradient id="Unbenannter_Verlauf_22" cx="655.78" cy="527.14" r="33.18" gradientUnits="userSpaceOnUse"><stop offset="0.06" stop-color="#ccad71" stop-opacity="0.3"/><stop offset="0.28" stop-color="#ccad71" stop-opacity="0.27"/><stop offset="0.55" stop-color="#ccad71" stop-opacity="0.2"/><stop offset="0.85" stop-color="#ccad71" stop-opacity="0.08"/><stop offset="1" stop-color="#ccad71" stop-opacity="0"/></radialGradient><linearGradient id="Unbenannter_Verlauf_12-3" x1="651.94" y1="503.73" x2="662.77" y2="503.73" xlink:href="#Unbenannter_Verlauf_12"/><linearGradient id="Unbenannter_Verlauf_12-4" x1="621.19" y1="501.65" x2="636.31" y2="501.65" xlink:href="#Unbenannter_Verlauf_12"/><linearGradient id="Unbenannter_Verlauf_12-5" x1="676.65" y1="501.42" x2="691.79" y2="501.42" gradientTransform="matrix(0.92, -0.39, 0.39, 0.92, -141.97, 306.46)" xlink:href="#Unbenannter_Verlauf_12"/><clipPath id="clip-path-7"><rect class="cls-1" x="331.54" y="324.02" width="72.06" height="38.62" transform="translate(735.14 686.66) rotate(180)"/></clipPath><clipPath id="clip-path-8"><rect class="cls-1" x="419.91" y="324.02" width="72.06" height="38.62" transform="translate(911.88 686.66) rotate(180)"/></clipPath><clipPath id="clip-path-9"><path class="cls-1" d="M397.93,324H337.21a5.68,5.68,0,0,0-5.67,5.67V357a5.68,5.68,0,0,0,5.67,5.67h60.72A5.68,5.68,0,0,0,403.6,357V329.69A5.68,5.68,0,0,0,397.93,324Zm88.37,0H425.58a5.69,5.69,0,0,0-5.67,5.67V357a5.69,5.69,0,0,0,5.67,5.67H486.3A5.68,5.68,0,0,0,492,357V329.69A5.68,5.68,0,0,0,486.3,324Z"/></clipPath><clipPath id="clip-path-10"><rect class="cls-1" x="277.1" y="134.17" width="39.01" height="39.01"/></clipPath><symbol id="Token_Shares" data-name="Token Shares" viewBox="0 0 17.37 17.37"><circle class="cls-6" cx="8.69" cy="8.69" r="8.54"/><path class="cls-7" d="M16.08,13A8.53,8.53,0,1,1,1.3,4.42"/><circle class="cls-4" cx="8.69" cy="8.69" r="7.05"/><circle class="cls-6" cx="8.69" cy="8.69" r="5.57"/></symbol><symbol id="CHF_Token" data-name="CHF Token" viewBox="0 0 17.37 17.37"><circle class="cls-3" cx="8.69" cy="8.69" r="8.54"/><circle class="cls-4" cx="8.69" cy="8.69" r="7.05"/><circle class="cls-5" cx="8.69" cy="8.69" r="5.57"/></symbol><symbol id="Aktie" data-name="Aktie" viewBox="0 0 29.57 17.96"><rect class="cls-2" x="0.15" y="0.15" width="29.27" height="17.66"/><path class="cls-2" d="M26.28.15a3.44,3.44,0,0,0,3.14,3.67V14.14a3.44,3.44,0,0,0-3.14,3.67h-23A3.44,3.44,0,0,0,.15,14.14V3.82A3.44,3.44,0,0,0,3.29.15Z"/><path class="cls-2" d="M10.09,10.09a1.22,1.22,0,0,1,0-2.22l.75-.35a1.24,1.24,0,0,0,.71-1.22l-.08-.83a1.23,1.23,0,0,1,.61-1.17,1.22,1.22,0,0,1,1.32.06l.68.47a1.22,1.22,0,0,0,1.41,0l.68-.47a1.22,1.22,0,0,1,1.32-.06,1.23,1.23,0,0,1,.61,1.17L18,6.3a1.22,1.22,0,0,0,.7,1.22l.76.35a1.22,1.22,0,0,1,0,2.22l-.76.36a1.2,1.2,0,0,0-.7,1.22l.07.83a1.24,1.24,0,0,1-.61,1.17,1.26,1.26,0,0,1-1.32-.06l-.68-.48a1.22,1.22,0,0,0-1.41,0l-.68.48a1.26,1.26,0,0,1-1.32.06,1.24,1.24,0,0,1-.61-1.17l.08-.83a1.22,1.22,0,0,0-.71-1.22Z"/><path class="cls-2" d="M14.57,5H15a4,4,0,0,1,3.13,1.81c.07.12.15.24.21.37a3.94,3.94,0,0,1,0,3.6c-.06.13-.14.26-.21.38A4,4,0,0,1,15,13h-.43a4,4,0,0,1-3.12-1.8c-.08-.12-.15-.25-.22-.38a4,4,0,0,1,0-3.6c.07-.13.14-.25.22-.37A4,4,0,0,1,14.57,5Z"/></symbol></defs><g class="cls-8"><g id="BG"><rect class="cls-9" width="747.04" height="561.18"/><rect class="cls-9" width="747.04" height="462.7"/></g><g id="BG_Pattern" data-name="BG Pattern"><g class="cls-10"><g class="cls-11"><line class="cls-12" x1="246.27" y1="-411.23" x2="-506.69" y2="892.93"/><line class="cls-12" x1="251.94" y1="-411.23" x2="-501.02" y2="892.93"/><line class="cls-12" x1="257.61" y1="-411.23" x2="-495.35" y2="892.93"/><line class="cls-12" x1="263.28" y1="-411.23" x2="-489.68" y2="892.93"/><line class="cls-12" x1="268.94" y1="-411.23" x2="-484.01" y2="892.93"/><line class="cls-12" x1="274.61" y1="-411.23" x2="-478.34" y2="892.93"/><line class="cls-12" x1="280.28" y1="-411.23" x2="-472.68" y2="892.93"/><line class="cls-12" x1="285.95" y1="-411.23" x2="-467.01" y2="892.93"/><line class="cls-12" x1="291.62" y1="-411.23" x2="-461.34" y2="892.93"/><line class="cls-12" x1="297.29" y1="-411.23" x2="-455.67" y2="892.93"/><line class="cls-12" x1="302.96" y1="-411.23" x2="-450" y2="892.93"/><line class="cls-12" x1="308.63" y1="-411.23" x2="-444.33" y2="892.93"/><line class="cls-12" x1="314.29" y1="-411.23" x2="-438.66" y2="892.93"/><line class="cls-12" x1="319.96" y1="-411.23" x2="-432.99" y2="892.93"/><line class="cls-12" x1="325.63" y1="-411.23" x2="-427.33" y2="892.93"/><line class="cls-12" x1="331.3" y1="-411.23" x2="-421.66" y2="892.93"/><line class="cls-12" x1="336.97" y1="-411.23" x2="-415.99" y2="892.93"/><line class="cls-12" x1="342.64" y1="-411.23" x2="-410.32" y2="892.93"/><line class="cls-12" x1="348.31" y1="-411.23" x2="-404.65" y2="892.93"/><line class="cls-12" x1="353.98" y1="-411.23" x2="-398.98" y2="892.93"/><line class="cls-12" x1="359.64" y1="-411.23" x2="-393.31" y2="892.93"/><line class="cls-12" x1="365.31" y1="-411.23" x2="-387.65" y2="892.93"/><line class="cls-12" x1="370.98" y1="-411.23" x2="-381.98" y2="892.93"/><line class="cls-12" x1="376.65" y1="-411.23" x2="-376.31" y2="892.93"/><line class="cls-12" x1="382.32" y1="-411.23" x2="-370.64" y2="892.93"/><line class="cls-12" x1="387.99" y1="-411.23" x2="-364.97" y2="892.93"/><line class="cls-12" x1="393.66" y1="-411.23" x2="-359.3" y2="892.93"/><line class="cls-12" x1="399.33" y1="-411.23" x2="-353.63" y2="892.93"/><line class="cls-12" x1="404.99" y1="-411.23" x2="-347.96" y2="892.93"/><line class="cls-12" x1="410.66" y1="-411.23" x2="-342.3" y2="892.93"/><line class="cls-12" x1="416.33" y1="-411.23" x2="-336.63" y2="892.93"/><line class="cls-12" x1="422" y1="-411.23" x2="-330.96" y2="892.93"/><line class="cls-12" x1="427.67" y1="-411.23" x2="-325.29" y2="892.93"/><line class="cls-12" x1="433.34" y1="-411.23" x2="-319.62" y2="892.93"/><line class="cls-12" x1="439.01" y1="-411.23" x2="-313.95" y2="892.93"/><line class="cls-12" x1="444.67" y1="-411.23" x2="-308.28" y2="892.93"/><line class="cls-12" x1="450.34" y1="-411.23" x2="-302.61" y2="892.93"/><line class="cls-12" x1="456.01" y1="-411.23" x2="-296.95" y2="892.93"/><line class="cls-12" x1="461.68" y1="-411.23" x2="-291.28" y2="892.93"/><line class="cls-12" x1="467.35" y1="-411.23" x2="-285.61" y2="892.93"/><line class="cls-12" x1="473.02" y1="-411.23" x2="-279.94" y2="892.93"/><line class="cls-12" x1="478.69" y1="-411.23" x2="-274.27" y2="892.93"/><line class="cls-12" x1="484.36" y1="-411.23" x2="-268.6" y2="892.93"/><line class="cls-12" x1="490.02" y1="-411.23" x2="-262.93" y2="892.93"/><line class="cls-12" x1="495.69" y1="-411.23" x2="-257.26" y2="892.93"/><line class="cls-12" x1="501.36" y1="-411.23" x2="-251.6" y2="892.93"/><line class="cls-12" x1="507.03" y1="-411.23" x2="-245.93" y2="892.93"/><line class="cls-12" x1="512.7" y1="-411.23" x2="-240.26" y2="892.93"/><line class="cls-12" x1="518.37" y1="-411.23" x2="-234.59" y2="892.93"/><line class="cls-12" x1="524.04" y1="-411.23" x2="-228.92" y2="892.93"/><line class="cls-12" x1="529.71" y1="-411.23" x2="-223.25" y2="892.93"/><line class="cls-12" x1="535.37" y1="-411.23" x2="-217.58" y2="892.93"/><line class="cls-12" x1="541.04" y1="-411.23" x2="-211.91" y2="892.93"/><line class="cls-12" x1="546.71" y1="-411.23" x2="-206.25" y2="892.93"/><line class="cls-12" x1="552.38" y1="-411.23" x2="-200.58" y2="892.93"/><line class="cls-12" x1="558.05" y1="-411.23" x2="-194.91" y2="892.93"/><line class="cls-12" x1="563.72" y1="-411.23" x2="-189.24" y2="892.93"/><line class="cls-12" x1="569.39" y1="-411.23" x2="-183.57" y2="892.93"/><line class="cls-12" x1="575.06" y1="-411.23" x2="-177.9" y2="892.93"/><line class="cls-12" x1="580.72" y1="-411.23" x2="-172.23" y2="892.93"/><line class="cls-12" x1="586.39" y1="-411.23" x2="-166.56" y2="892.93"/><line class="cls-12" x1="592.06" y1="-411.23" x2="-160.9" y2="892.93"/><line class="cls-12" x1="597.73" y1="-411.23" x2="-155.23" y2="892.93"/><line class="cls-12" x1="603.4" y1="-411.23" x2="-149.56" y2="892.93"/><line class="cls-12" x1="609.07" y1="-411.23" x2="-143.89" y2="892.93"/><line class="cls-12" x1="614.74" y1="-411.23" x2="-138.22" y2="892.93"/><line class="cls-12" x1="620.41" y1="-411.23" x2="-132.55" y2="892.93"/><line class="cls-12" x1="626.07" y1="-411.23" x2="-126.88" y2="892.93"/><line class="cls-12" x1="631.74" y1="-411.23" x2="-121.21" y2="892.93"/><line class="cls-12" x1="637.41" y1="-411.23" x2="-115.55" y2="892.93"/><line class="cls-12" x1="643.08" y1="-411.23" x2="-109.88" y2="892.93"/><line class="cls-12" x1="648.75" y1="-411.23" x2="-104.21" y2="892.93"/><line class="cls-12" x1="654.42" y1="-411.23" x2="-98.54" y2="892.93"/><line class="cls-12" x1="660.09" y1="-411.23" x2="-92.87" y2="892.93"/><line class="cls-12" x1="665.76" y1="-411.23" x2="-87.2" y2="892.93"/><line class="cls-12" x1="671.42" y1="-411.23" x2="-81.53" y2="892.93"/><line class="cls-12" x1="677.09" y1="-411.23" x2="-75.86" y2="892.93"/><line class="cls-12" x1="682.76" y1="-411.23" x2="-70.2" y2="892.93"/><line class="cls-12" x1="688.43" y1="-411.23" x2="-64.53" y2="892.93"/><line class="cls-12" x1="694.1" y1="-411.23" x2="-58.86" y2="892.93"/><line class="cls-12" x1="699.77" y1="-411.23" x2="-53.19" y2="892.93"/><line class="cls-12" x1="705.44" y1="-411.23" x2="-47.52" y2="892.93"/><line class="cls-12" x1="711.11" y1="-411.23" x2="-41.85" y2="892.93"/><line class="cls-12" x1="716.77" y1="-411.23" x2="-36.18" y2="892.93"/><line class="cls-12" x1="722.44" y1="-411.23" x2="-30.51" y2="892.93"/><line class="cls-12" x1="728.11" y1="-411.23" x2="-24.85" y2="892.93"/><line class="cls-12" x1="733.78" y1="-411.23" x2="-19.18" y2="892.93"/><line class="cls-12" x1="739.45" y1="-411.23" x2="-13.51" y2="892.93"/><line class="cls-12" x1="745.12" y1="-411.23" x2="-7.84" y2="892.93"/><line class="cls-12" x1="750.79" y1="-411.23" x2="-2.17" y2="892.93"/><line class="cls-12" x1="756.46" y1="-411.23" x2="3.5" y2="892.93"/><line class="cls-12" x1="762.12" y1="-411.23" x2="9.17" y2="892.93"/><line class="cls-12" x1="767.79" y1="-411.23" x2="14.83" y2="892.93"/><line class="cls-12" x1="773.46" y1="-411.23" x2="20.5" y2="892.93"/><line class="cls-12" x1="779.13" y1="-411.23" x2="26.17" y2="892.93"/><line class="cls-12" x1="784.8" y1="-411.23" x2="31.84" y2="892.93"/><line class="cls-12" x1="790.47" y1="-411.23" x2="37.51" y2="892.93"/><line class="cls-12" x1="796.14" y1="-411.23" x2="43.18" y2="892.93"/><line class="cls-12" x1="801.81" y1="-411.23" x2="48.85" y2="892.93"/><line class="cls-12" x1="807.47" y1="-411.23" x2="54.52" y2="892.93"/><line class="cls-12" x1="813.14" y1="-411.23" x2="60.18" y2="892.93"/><line class="cls-12" x1="818.81" y1="-411.23" x2="65.85" y2="892.93"/><line class="cls-12" x1="824.48" y1="-411.23" x2="71.52" y2="892.93"/><line class="cls-12" x1="830.15" y1="-411.23" x2="77.19" y2="892.93"/><line class="cls-12" x1="835.82" y1="-411.23" x2="82.86" y2="892.93"/><line class="cls-12" x1="841.49" y1="-411.23" x2="88.53" y2="892.93"/><line class="cls-12" x1="847.15" y1="-411.23" x2="94.2" y2="892.93"/><line class="cls-12" x1="852.82" y1="-411.23" x2="99.87" y2="892.93"/><line class="cls-12" x1="858.49" y1="-411.23" x2="105.53" y2="892.93"/><line class="cls-12" x1="864.16" y1="-411.23" x2="111.2" y2="892.93"/><line class="cls-12" x1="869.83" y1="-411.23" x2="116.87" y2="892.93"/><line class="cls-12" x1="875.5" y1="-411.23" x2="122.54" y2="892.93"/><line class="cls-12" x1="881.17" y1="-411.23" x2="128.21" y2="892.93"/><line class="cls-12" x1="886.84" y1="-411.23" x2="133.88" y2="892.93"/><line class="cls-12" x1="892.5" y1="-411.23" x2="139.55" y2="892.93"/><line class="cls-12" x1="898.17" y1="-411.23" x2="145.22" y2="892.93"/><line class="cls-12" x1="903.84" y1="-411.23" x2="150.88" y2="892.93"/><line class="cls-12" x1="909.51" y1="-411.23" x2="156.55" y2="892.93"/><line class="cls-12" x1="915.18" y1="-411.23" x2="162.22" y2="892.93"/><line class="cls-12" x1="920.85" y1="-411.23" x2="167.89" y2="892.93"/><line class="cls-12" x1="926.52" y1="-411.23" x2="173.56" y2="892.93"/><line class="cls-12" x1="932.19" y1="-411.23" x2="179.23" y2="892.93"/><line class="cls-12" x1="937.85" y1="-411.23" x2="184.9" y2="892.93"/><line class="cls-12" x1="943.52" y1="-411.23" x2="190.57" y2="892.93"/><line class="cls-12" x1="949.19" y1="-411.23" x2="196.23" y2="892.93"/><line class="cls-12" x1="954.86" y1="-411.23" x2="201.9" y2="892.93"/><line class="cls-12" x1="960.53" y1="-411.23" x2="207.57" y2="892.93"/><line class="cls-12" x1="966.2" y1="-411.23" x2="213.24" y2="892.93"/><line class="cls-12" x1="971.87" y1="-411.23" x2="218.91" y2="892.93"/><line class="cls-12" x1="977.54" y1="-411.23" x2="224.58" y2="892.93"/><line class="cls-12" x1="983.2" y1="-411.23" x2="230.25" y2="892.93"/><line class="cls-12" x1="988.87" y1="-411.23" x2="235.92" y2="892.93"/><line class="cls-12" x1="994.54" y1="-411.23" x2="241.58" y2="892.93"/><line class="cls-12" x1="1000.21" y1="-411.23" x2="247.25" y2="892.93"/><line class="cls-12" x1="1005.88" y1="-411.23" x2="252.92" y2="892.93"/><line class="cls-12" x1="1011.55" y1="-411.23" x2="258.59" y2="892.93"/><line class="cls-12" x1="1017.22" y1="-411.23" x2="264.26" y2="892.93"/><line class="cls-12" x1="1022.89" y1="-411.23" x2="269.93" y2="892.93"/><line class="cls-12" x1="1028.55" y1="-411.23" x2="275.6" y2="892.93"/><line class="cls-12" x1="1034.22" y1="-411.23" x2="281.27" y2="892.93"/><line class="cls-12" x1="1039.89" y1="-411.23" x2="286.93" y2="892.93"/><line class="cls-12" x1="1045.56" y1="-411.23" x2="292.6" y2="892.93"/><line class="cls-12" x1="1051.23" y1="-411.23" x2="298.27" y2="892.93"/><line class="cls-12" x1="1056.9" y1="-411.23" x2="303.94" y2="892.93"/><line class="cls-12" x1="1062.57" y1="-411.23" x2="309.61" y2="892.93"/><line class="cls-12" x1="1068.24" y1="-411.23" x2="315.28" y2="892.93"/><line class="cls-12" x1="1073.9" y1="-411.23" x2="320.95" y2="892.93"/><line class="cls-12" x1="1079.57" y1="-411.23" x2="326.62" y2="892.93"/><line class="cls-12" x1="1085.24" y1="-411.23" x2="332.28" y2="892.93"/><line class="cls-12" x1="1090.91" y1="-411.23" x2="337.95" y2="892.93"/><line class="cls-12" x1="1096.58" y1="-411.23" x2="343.62" y2="892.93"/><line class="cls-12" x1="1102.25" y1="-411.23" x2="349.29" y2="892.93"/><line class="cls-12" x1="1107.92" y1="-411.23" x2="354.96" y2="892.93"/><line class="cls-12" x1="1113.59" y1="-411.23" x2="360.63" y2="892.93"/><line class="cls-12" x1="1119.25" y1="-411.23" x2="366.3" y2="892.93"/><line class="cls-12" x1="1124.92" y1="-411.23" x2="371.97" y2="892.93"/><line class="cls-12" x1="1130.59" y1="-411.23" x2="377.63" y2="892.93"/><line class="cls-12" x1="1136.26" y1="-411.23" x2="383.3" y2="892.93"/><line class="cls-12" x1="1141.93" y1="-411.23" x2="388.97" y2="892.93"/><line class="cls-12" x1="1147.6" y1="-411.23" x2="394.64" y2="892.93"/><line class="cls-12" x1="1153.27" y1="-411.23" x2="400.31" y2="892.93"/><line class="cls-12" x1="1158.94" y1="-411.23" x2="405.98" y2="892.93"/><line class="cls-12" x1="1164.6" y1="-411.23" x2="411.65" y2="892.93"/><line class="cls-12" x1="1170.27" y1="-411.23" x2="417.31" y2="892.93"/><line class="cls-12" x1="1175.94" y1="-411.23" x2="422.98" y2="892.93"/><line class="cls-12" x1="1181.61" y1="-411.23" x2="428.65" y2="892.93"/><line class="cls-12" x1="1187.28" y1="-411.23" x2="434.32" y2="892.93"/><line class="cls-12" x1="1192.95" y1="-411.23" x2="439.99" y2="892.93"/><line class="cls-12" x1="1198.62" y1="-411.23" x2="445.66" y2="892.93"/><line class="cls-12" x1="1204.29" y1="-411.23" x2="451.33" y2="892.93"/><line class="cls-12" x1="1209.95" y1="-411.23" x2="457" y2="892.93"/><line class="cls-12" x1="1215.62" y1="-411.23" x2="462.66" y2="892.93"/><line class="cls-12" x1="1221.29" y1="-411.23" x2="468.33" y2="892.93"/><line class="cls-12" x1="1226.96" y1="-411.23" x2="474" y2="892.93"/><line class="cls-12" x1="1232.63" y1="-411.23" x2="479.67" y2="892.93"/><line class="cls-12" x1="1238.3" y1="-411.23" x2="485.34" y2="892.93"/><line class="cls-12" x1="1243.97" y1="-411.23" x2="491.01" y2="892.93"/><line class="cls-12" x1="1249.63" y1="-411.23" x2="496.68" y2="892.93"/><line class="cls-12" x1="1255.3" y1="-411.23" x2="502.35" y2="892.93"/><line class="cls-12" x1="1260.97" y1="-411.23" x2="508.01" y2="892.93"/><line class="cls-12" x1="1266.64" y1="-411.23" x2="513.68" y2="892.93"/><line class="cls-12" x1="1272.31" y1="-411.23" x2="519.35" y2="892.93"/><line class="cls-12" x1="1277.98" y1="-411.23" x2="525.02" y2="892.93"/><line class="cls-12" x1="1283.65" y1="-411.23" x2="530.69" y2="892.93"/><line class="cls-12" x1="1289.32" y1="-411.23" x2="536.36" y2="892.93"/><line class="cls-12" x1="1294.98" y1="-411.23" x2="542.03" y2="892.93"/><line class="cls-12" x1="1300.65" y1="-411.23" x2="547.7" y2="892.93"/><line class="cls-12" x1="1306.32" y1="-411.23" x2="553.36" y2="892.93"/><line class="cls-12" x1="1311.99" y1="-411.23" x2="559.03" y2="892.93"/><line class="cls-12" x1="1317.66" y1="-411.23" x2="564.7" y2="892.93"/><line class="cls-12" x1="1323.33" y1="-411.23" x2="570.37" y2="892.93"/><line class="cls-12" x1="1329" y1="-411.23" x2="576.04" y2="892.93"/><line class="cls-12" x1="1334.67" y1="-411.23" x2="581.71" y2="892.93"/><line class="cls-12" x1="99.35" y1="560.79" x2="852.31" y2="1864.95"/><line class="cls-12" x1="102.18" y1="555.88" x2="855.14" y2="1860.04"/><line class="cls-12" x1="105.01" y1="550.97" x2="857.97" y2="1855.13"/><line class="cls-12" x1="107.84" y1="546.05" x2="860.8" y2="1850.22"/><line class="cls-12" x1="110.67" y1="541.14" x2="863.63" y2="1845.3"/><line class="cls-12" x1="113.51" y1="536.23" x2="866.46" y2="1840.39"/><line class="cls-12" x1="116.34" y1="531.32" x2="869.29" y2="1835.48"/><line class="cls-12" x1="119.17" y1="526.41" x2="872.12" y2="1830.57"/><line class="cls-12" x1="122" y1="521.5" x2="874.95" y2="1825.66"/><line class="cls-12" x1="124.83" y1="516.58" x2="877.78" y2="1820.74"/><line class="cls-12" x1="127.66" y1="511.67" x2="880.61" y2="1815.83"/><line class="cls-12" x1="130.49" y1="506.76" x2="883.45" y2="1810.92"/><line class="cls-12" x1="133.32" y1="501.85" x2="886.28" y2="1806.01"/><line class="cls-12" x1="136.15" y1="496.94" x2="889.11" y2="1801.1"/><line class="cls-12" x1="138.98" y1="492.03" x2="891.94" y2="1796.19"/><line class="cls-12" x1="141.81" y1="487.11" x2="894.77" y2="1791.27"/><line class="cls-12" x1="144.64" y1="482.2" x2="897.6" y2="1786.36"/><line class="cls-12" x1="147.47" y1="477.29" x2="900.43" y2="1781.45"/><line class="cls-12" x1="150.3" y1="472.38" x2="903.26" y2="1776.54"/><line class="cls-12" x1="153.13" y1="467.47" x2="906.09" y2="1771.63"/><line class="cls-12" x1="155.96" y1="462.56" x2="908.92" y2="1766.72"/><line class="cls-12" x1="158.79" y1="457.64" x2="911.75" y2="1761.8"/><line class="cls-12" x1="161.62" y1="452.73" x2="914.58" y2="1756.89"/><line class="cls-12" x1="164.45" y1="447.82" x2="917.41" y2="1751.98"/><line class="cls-12" x1="167.28" y1="442.91" x2="920.24" y2="1747.07"/><line class="cls-12" x1="170.11" y1="438" x2="923.07" y2="1742.16"/><line class="cls-12" x1="172.94" y1="433.09" x2="925.9" y2="1737.25"/><line class="cls-12" x1="175.77" y1="428.17" x2="928.73" y2="1732.33"/><line class="cls-12" x1="178.6" y1="423.26" x2="931.56" y2="1727.42"/><line class="cls-12" x1="181.43" y1="418.35" x2="934.39" y2="1722.51"/><line class="cls-12" x1="184.26" y1="413.44" x2="937.22" y2="1717.6"/><line class="cls-12" x1="187.1" y1="408.53" x2="940.05" y2="1712.69"/><line class="cls-12" x1="189.93" y1="403.62" x2="942.88" y2="1707.78"/><line class="cls-12" x1="192.76" y1="398.7" x2="945.71" y2="1702.86"/><line class="cls-12" x1="195.59" y1="393.79" x2="948.54" y2="1697.95"/><line class="cls-12" x1="198.42" y1="388.88" x2="951.37" y2="1693.04"/><line class="cls-12" x1="201.25" y1="383.97" x2="954.2" y2="1688.13"/><line class="cls-12" x1="204.08" y1="379.06" x2="957.04" y2="1683.22"/><line class="cls-12" x1="206.91" y1="374.15" x2="959.87" y2="1678.31"/><line class="cls-12" x1="209.74" y1="369.23" x2="962.7" y2="1673.39"/><line class="cls-12" x1="212.57" y1="364.32" x2="965.53" y2="1668.48"/><line class="cls-12" x1="215.4" y1="359.41" x2="968.36" y2="1663.57"/><line class="cls-12" x1="218.23" y1="354.5" x2="971.19" y2="1658.66"/><line class="cls-12" x1="221.06" y1="349.59" x2="974.02" y2="1653.75"/><line class="cls-12" x1="223.89" y1="344.67" x2="976.85" y2="1648.84"/><line class="cls-12" x1="226.72" y1="339.76" x2="979.68" y2="1643.92"/><line class="cls-12" x1="229.55" y1="334.85" x2="982.51" y2="1639.01"/><line class="cls-12" x1="232.38" y1="329.94" x2="985.34" y2="1634.1"/><line class="cls-12" x1="235.21" y1="325.03" x2="988.17" y2="1629.19"/><line class="cls-12" x1="238.04" y1="320.12" x2="991" y2="1624.28"/><line class="cls-12" x1="240.87" y1="315.2" x2="993.83" y2="1619.37"/><line class="cls-12" x1="243.7" y1="310.29" x2="996.66" y2="1614.45"/><line class="cls-12" x1="246.53" y1="305.38" x2="999.49" y2="1609.54"/><line class="cls-12" x1="249.36" y1="300.47" x2="1002.32" y2="1604.63"/><line class="cls-12" x1="252.19" y1="295.56" x2="1005.15" y2="1599.72"/><line class="cls-12" x1="255.02" y1="290.65" x2="1007.98" y2="1594.81"/><line class="cls-12" x1="257.85" y1="285.73" x2="1010.81" y2="1589.9"/><line class="cls-12" x1="260.69" y1="280.82" x2="1013.64" y2="1584.98"/><line class="cls-12" x1="263.52" y1="275.91" x2="1016.47" y2="1580.07"/><line class="cls-12" x1="266.35" y1="271" x2="1019.3" y2="1575.16"/><line class="cls-12" x1="269.18" y1="266.09" x2="1022.13" y2="1570.25"/><line class="cls-12" x1="272.01" y1="261.18" x2="1024.96" y2="1565.34"/><line class="cls-12" x1="274.84" y1="256.26" x2="1027.79" y2="1560.43"/><line class="cls-12" x1="277.67" y1="251.35" x2="1030.63" y2="1555.51"/><line class="cls-12" x1="280.5" y1="246.44" x2="1033.46" y2="1550.6"/><line class="cls-12" x1="283.33" y1="241.53" x2="1036.29" y2="1545.69"/><line class="cls-12" x1="286.16" y1="236.62" x2="1039.12" y2="1540.78"/><line class="cls-12" x1="288.99" y1="231.71" x2="1041.95" y2="1535.87"/><line class="cls-12" x1="291.82" y1="226.79" x2="1044.78" y2="1530.96"/><line class="cls-12" x1="294.65" y1="221.88" x2="1047.61" y2="1526.04"/><line class="cls-12" x1="297.48" y1="216.97" x2="1050.44" y2="1521.13"/><line class="cls-12" x1="300.31" y1="212.06" x2="1053.27" y2="1516.22"/><line class="cls-12" x1="303.14" y1="207.15" x2="1056.1" y2="1511.31"/><line class="cls-12" x1="305.97" y1="202.24" x2="1058.93" y2="1506.4"/><line class="cls-12" x1="308.8" y1="197.32" x2="1061.76" y2="1501.49"/><line class="cls-12" x1="311.63" y1="192.41" x2="1064.59" y2="1496.57"/><line class="cls-12" x1="314.46" y1="187.5" x2="1067.42" y2="1491.66"/><line class="cls-12" x1="317.29" y1="182.59" x2="1070.25" y2="1486.75"/><line class="cls-12" x1="320.12" y1="177.68" x2="1073.08" y2="1481.84"/><line class="cls-12" x1="322.95" y1="172.77" x2="1075.91" y2="1476.93"/><line class="cls-12" x1="325.78" y1="167.85" x2="1078.74" y2="1472.02"/><line class="cls-12" x1="328.61" y1="162.94" x2="1081.57" y2="1467.1"/><line class="cls-12" x1="331.44" y1="158.03" x2="1084.4" y2="1462.19"/><line class="cls-12" x1="334.28" y1="153.12" x2="1087.23" y2="1457.28"/><line class="cls-12" x1="337.11" y1="148.21" x2="1090.06" y2="1452.37"/><line class="cls-12" x1="339.94" y1="143.3" x2="1092.89" y2="1447.46"/><line class="cls-12" x1="342.77" y1="138.38" x2="1095.72" y2="1442.55"/><line class="cls-12" x1="345.6" y1="133.47" x2="1098.55" y2="1437.63"/><line class="cls-12" x1="348.43" y1="128.56" x2="1101.39" y2="1432.72"/><line class="cls-12" x1="351.26" y1="123.65" x2="1104.22" y2="1427.81"/><line class="cls-12" x1="354.09" y1="118.74" x2="1107.05" y2="1422.9"/><line class="cls-12" x1="356.92" y1="113.83" x2="1109.88" y2="1417.99"/><line class="cls-12" x1="359.75" y1="108.91" x2="1112.71" y2="1413.08"/><line class="cls-12" x1="362.58" y1="104" x2="1115.54" y2="1408.16"/><line class="cls-12" x1="365.41" y1="99.09" x2="1118.37" y2="1403.25"/><line class="cls-12" x1="368.24" y1="94.18" x2="1121.2" y2="1398.34"/><line class="cls-12" x1="371.07" y1="89.27" x2="1124.03" y2="1393.43"/><line class="cls-12" x1="373.9" y1="84.36" x2="1126.86" y2="1388.52"/><line class="cls-12" x1="376.73" y1="79.44" x2="1129.69" y2="1383.61"/><line class="cls-12" x1="379.56" y1="74.53" x2="1132.52" y2="1378.69"/><line class="cls-12" x1="382.39" y1="69.62" x2="1135.35" y2="1373.78"/><line class="cls-12" x1="385.22" y1="64.71" x2="1138.18" y2="1368.87"/><line class="cls-12" x1="388.05" y1="59.8" x2="1141.01" y2="1363.96"/><line class="cls-12" x1="390.88" y1="54.89" x2="1143.84" y2="1359.05"/><line class="cls-12" x1="393.71" y1="49.97" x2="1146.67" y2="1354.13"/><line class="cls-12" x1="396.54" y1="45.06" x2="1149.5" y2="1349.22"/><line class="cls-12" x1="399.37" y1="40.15" x2="1152.33" y2="1344.31"/><line class="cls-12" x1="402.2" y1="35.24" x2="1155.16" y2="1339.4"/><line class="cls-12" x1="405.04" y1="30.33" x2="1157.99" y2="1334.49"/><line class="cls-12" x1="407.87" y1="25.42" x2="1160.82" y2="1329.58"/><line class="cls-12" x1="410.7" y1="20.5" x2="1163.65" y2="1324.66"/><line class="cls-12" x1="413.53" y1="15.59" x2="1166.48" y2="1319.75"/><line class="cls-12" x1="416.36" y1="10.68" x2="1169.31" y2="1314.84"/><line class="cls-12" x1="419.19" y1="5.77" x2="1172.14" y2="1309.93"/><line class="cls-12" x1="422.02" y1="0.86" x2="1174.98" y2="1305.02"/><line class="cls-12" x1="424.85" y1="-4.05" x2="1177.81" y2="1300.11"/><line class="cls-12" x1="427.68" y1="-8.97" x2="1180.64" y2="1295.19"/><line class="cls-12" x1="430.51" y1="-13.88" x2="1183.47" y2="1290.28"/><line class="cls-12" x1="433.34" y1="-18.79" x2="1186.3" y2="1285.37"/><line class="cls-12" x1="436.17" y1="-23.7" x2="1189.13" y2="1280.46"/><line class="cls-12" x1="439" y1="-28.61" x2="1191.96" y2="1275.55"/><line class="cls-12" x1="441.83" y1="-33.52" x2="1194.79" y2="1270.64"/><line class="cls-12" x1="444.66" y1="-38.44" x2="1197.62" y2="1265.72"/><line class="cls-12" x1="447.49" y1="-43.35" x2="1200.45" y2="1260.81"/><line class="cls-12" x1="450.32" y1="-48.26" x2="1203.28" y2="1255.9"/><line class="cls-12" x1="453.15" y1="-53.17" x2="1206.11" y2="1250.99"/><line class="cls-12" x1="455.98" y1="-58.08" x2="1208.94" y2="1246.08"/><line class="cls-12" x1="458.81" y1="-62.99" x2="1211.77" y2="1241.17"/><line class="cls-12" x1="461.64" y1="-67.91" x2="1214.6" y2="1236.25"/><line class="cls-12" x1="464.47" y1="-72.82" x2="1217.43" y2="1231.34"/><line class="cls-12" x1="467.3" y1="-77.73" x2="1220.26" y2="1226.43"/><line class="cls-12" x1="470.13" y1="-82.64" x2="1223.09" y2="1221.52"/><line class="cls-12" x1="472.96" y1="-87.55" x2="1225.92" y2="1216.61"/><line class="cls-12" x1="475.79" y1="-92.46" x2="1228.75" y2="1211.7"/><line class="cls-12" x1="478.63" y1="-97.38" x2="1231.58" y2="1206.78"/><line class="cls-12" x1="481.46" y1="-102.29" x2="1234.41" y2="1201.87"/><line class="cls-12" x1="484.29" y1="-107.2" x2="1237.24" y2="1196.96"/><line class="cls-12" x1="487.12" y1="-112.11" x2="1240.07" y2="1192.05"/><line class="cls-12" x1="489.95" y1="-117.02" x2="1242.9" y2="1187.14"/><line class="cls-12" x1="492.78" y1="-121.94" x2="1245.73" y2="1182.23"/><line class="cls-12" x1="495.61" y1="-126.85" x2="1248.57" y2="1177.31"/><line class="cls-12" x1="498.44" y1="-131.76" x2="1251.4" y2="1172.4"/><line class="cls-12" x1="501.27" y1="-136.67" x2="1254.23" y2="1167.49"/><line class="cls-12" x1="504.1" y1="-141.58" x2="1257.06" y2="1162.58"/><line class="cls-12" x1="506.93" y1="-146.49" x2="1259.89" y2="1157.67"/><line class="cls-12" x1="509.76" y1="-151.41" x2="1262.72" y2="1152.76"/><line class="cls-12" x1="512.59" y1="-156.32" x2="1265.55" y2="1147.84"/><line class="cls-12" x1="515.42" y1="-161.23" x2="1268.38" y2="1142.93"/><line class="cls-12" x1="518.25" y1="-166.14" x2="1271.21" y2="1138.02"/><line class="cls-12" x1="521.08" y1="-171.05" x2="1274.04" y2="1133.11"/><line class="cls-12" x1="523.91" y1="-175.96" x2="1276.87" y2="1128.2"/><line class="cls-12" x1="526.74" y1="-180.88" x2="1279.7" y2="1123.29"/><line class="cls-12" x1="529.57" y1="-185.79" x2="1282.53" y2="1118.37"/><line class="cls-12" x1="532.4" y1="-190.7" x2="1285.36" y2="1113.46"/><line class="cls-12" x1="535.23" y1="-195.61" x2="1288.19" y2="1108.55"/><line class="cls-12" x1="538.06" y1="-200.52" x2="1291.02" y2="1103.64"/><line class="cls-12" x1="540.89" y1="-205.43" x2="1293.85" y2="1098.73"/><line class="cls-12" x1="543.72" y1="-210.35" x2="1296.68" y2="1093.82"/><line class="cls-12" x1="546.55" y1="-215.26" x2="1299.51" y2="1088.9"/><line class="cls-12" x1="549.38" y1="-220.17" x2="1302.34" y2="1083.99"/><line class="cls-12" x1="552.22" y1="-225.08" x2="1305.17" y2="1079.08"/><line class="cls-12" x1="555.05" y1="-229.99" x2="1308" y2="1074.17"/><line class="cls-12" x1="557.88" y1="-234.9" x2="1310.83" y2="1069.26"/><line class="cls-12" x1="560.71" y1="-239.82" x2="1313.66" y2="1064.35"/><line class="cls-12" x1="563.54" y1="-244.73" x2="1316.49" y2="1059.43"/><line class="cls-12" x1="566.37" y1="-249.64" x2="1319.32" y2="1054.52"/><line class="cls-12" x1="569.2" y1="-254.55" x2="1322.16" y2="1049.61"/><line class="cls-12" x1="572.03" y1="-259.46" x2="1324.99" y2="1044.7"/><line class="cls-12" x1="574.86" y1="-264.37" x2="1327.82" y2="1039.79"/><line class="cls-12" x1="577.69" y1="-269.29" x2="1330.65" y2="1034.88"/><line class="cls-12" x1="580.52" y1="-274.2" x2="1333.48" y2="1029.96"/><line class="cls-12" x1="583.35" y1="-279.11" x2="1336.31" y2="1025.05"/><line class="cls-12" x1="586.18" y1="-284.02" x2="1339.14" y2="1020.14"/><line class="cls-12" x1="589.01" y1="-288.93" x2="1341.97" y2="1015.23"/><line class="cls-12" x1="591.84" y1="-293.84" x2="1344.8" y2="1010.32"/><line class="cls-12" x1="594.67" y1="-298.76" x2="1347.63" y2="1005.41"/><line class="cls-12" x1="597.5" y1="-303.67" x2="1350.46" y2="1000.49"/><line class="cls-12" x1="1604.98" y1="559.92" x2="99.06" y2="559.92"/><line class="cls-12" x1="1607.81" y1="555.01" x2="101.9" y2="555.01"/><line class="cls-12" x1="1610.65" y1="550.1" x2="104.73" y2="550.1"/><line class="cls-12" x1="1613.48" y1="545.19" x2="107.56" y2="545.19"/><line class="cls-12" x1="1616.31" y1="540.28" x2="110.4" y2="540.28"/><line class="cls-12" x1="1619.15" y1="535.37" x2="113.23" y2="535.37"/><line class="cls-12" x1="1621.98" y1="530.46" x2="116.07" y2="530.46"/><line class="cls-12" x1="1624.82" y1="525.55" x2="118.9" y2="525.55"/><line class="cls-12" x1="1627.65" y1="520.64" x2="121.74" y2="520.64"/><line class="cls-12" x1="1630.49" y1="515.73" x2="124.57" y2="515.73"/><line class="cls-12" x1="1633.32" y1="510.82" x2="127.4" y2="510.82"/><line class="cls-12" x1="1636.15" y1="505.92" x2="130.24" y2="505.92"/><line class="cls-12" x1="1638.99" y1="501.01" x2="133.07" y2="501.01"/><line class="cls-12" x1="1641.82" y1="496.1" x2="135.91" y2="496.1"/><line class="cls-12" x1="1644.66" y1="491.19" x2="138.74" y2="491.19"/><line class="cls-12" x1="1647.49" y1="486.28" x2="141.58" y2="486.28"/><line class="cls-12" x1="1650.33" y1="481.37" x2="144.41" y2="481.37"/><line class="cls-12" x1="1653.16" y1="476.46" x2="147.24" y2="476.46"/><line class="cls-12" x1="1655.99" y1="471.55" x2="150.08" y2="471.55"/><line class="cls-12" x1="1658.83" y1="466.64" x2="152.91" y2="466.64"/><line class="cls-12" x1="1661.66" y1="461.73" x2="155.75" y2="461.73"/><line class="cls-12" x1="1664.5" y1="456.82" x2="158.58" y2="456.82"/><line class="cls-12" x1="1667.33" y1="451.91" x2="161.42" y2="451.91"/><line class="cls-12" x1="1670.17" y1="447" x2="164.25" y2="447"/><line class="cls-12" x1="1673" y1="442.09" x2="167.09" y2="442.09"/><line class="cls-12" x1="1675.84" y1="437.19" x2="169.92" y2="437.19"/><line class="cls-12" x1="1678.67" y1="432.28" x2="172.75" y2="432.28"/><line class="cls-12" x1="1681.5" y1="427.37" x2="175.59" y2="427.37"/><line class="cls-12" x1="1684.34" y1="422.46" x2="178.42" y2="422.46"/><line class="cls-12" x1="1687.17" y1="417.55" x2="181.26" y2="417.55"/><line class="cls-12" x1="1690.01" y1="412.64" x2="184.09" y2="412.64"/><line class="cls-12" x1="1692.84" y1="407.73" x2="186.93" y2="407.73"/><line class="cls-12" x1="1695.68" y1="402.82" x2="189.76" y2="402.82"/><line class="cls-12" x1="1698.51" y1="397.91" x2="192.59" y2="397.91"/><line class="cls-12" x1="1701.34" y1="393" x2="195.43" y2="393"/><line class="cls-12" x1="1704.18" y1="388.09" x2="198.26" y2="388.09"/><line class="cls-12" x1="1707.01" y1="383.18" x2="201.1" y2="383.18"/><line class="cls-12" x1="1709.85" y1="378.27" x2="203.93" y2="378.27"/><line class="cls-12" x1="1712.68" y1="373.36" x2="206.77" y2="373.36"/><line class="cls-12" x1="1715.52" y1="368.46" x2="209.6" y2="368.46"/><line class="cls-12" x1="1718.35" y1="363.55" x2="212.44" y2="363.55"/><line class="cls-12" x1="1721.19" y1="358.64" x2="215.27" y2="358.64"/><line class="cls-12" x1="1724.02" y1="353.73" x2="218.1" y2="353.73"/><line class="cls-12" x1="1726.85" y1="348.82" x2="220.94" y2="348.82"/><line class="cls-12" x1="1729.69" y1="343.91" x2="223.77" y2="343.91"/><line class="cls-12" x1="1732.52" y1="339" x2="226.61" y2="339"/><line class="cls-12" x1="1735.36" y1="334.09" x2="229.44" y2="334.09"/><line class="cls-12" x1="1738.19" y1="329.18" x2="232.28" y2="329.18"/><line class="cls-12" x1="1741.03" y1="324.27" x2="235.11" y2="324.27"/><line class="cls-12" x1="1743.86" y1="319.36" x2="237.94" y2="319.36"/><line class="cls-12" x1="1746.69" y1="314.45" x2="240.78" y2="314.45"/><line class="cls-12" x1="1749.53" y1="309.54" x2="243.61" y2="309.54"/><line class="cls-12" x1="1752.36" y1="304.64" x2="246.45" y2="304.64"/><line class="cls-12" x1="1755.2" y1="299.73" x2="249.28" y2="299.73"/><line class="cls-12" x1="1758.03" y1="294.82" x2="252.12" y2="294.82"/><line class="cls-12" x1="1760.87" y1="289.91" x2="254.95" y2="289.91"/><line class="cls-12" x1="1763.7" y1="285" x2="257.79" y2="285"/><line class="cls-12" x1="1766.54" y1="280.09" x2="260.62" y2="280.09"/><line class="cls-12" x1="1769.37" y1="275.18" x2="263.45" y2="275.18"/><line class="cls-12" x1="1772.2" y1="270.27" x2="266.29" y2="270.27"/><line class="cls-12" x1="1775.04" y1="265.36" x2="269.12" y2="265.36"/><line class="cls-12" x1="1777.87" y1="260.45" x2="271.96" y2="260.45"/><line class="cls-12" x1="1780.71" y1="255.54" x2="274.79" y2="255.54"/><line class="cls-12" x1="1783.54" y1="250.63" x2="277.63" y2="250.63"/><line class="cls-12" x1="1786.38" y1="245.72" x2="280.46" y2="245.72"/><line class="cls-12" x1="1789.21" y1="240.81" x2="283.29" y2="240.81"/><line class="cls-12" x1="1792.04" y1="235.91" x2="286.13" y2="235.91"/><line class="cls-12" x1="1794.88" y1="231" x2="288.96" y2="231"/><line class="cls-12" x1="1797.71" y1="226.09" x2="291.8" y2="226.09"/><line class="cls-12" x1="1800.55" y1="221.18" x2="294.63" y2="221.18"/><line class="cls-12" x1="1803.38" y1="216.27" x2="297.47" y2="216.27"/><line class="cls-12" x1="1806.22" y1="211.36" x2="300.3" y2="211.36"/><line class="cls-12" x1="1809.05" y1="206.45" x2="303.14" y2="206.45"/><line class="cls-12" x1="1811.89" y1="201.54" x2="305.97" y2="201.54"/><line class="cls-12" x1="1814.72" y1="196.63" x2="308.8" y2="196.63"/><line class="cls-12" x1="1817.55" y1="191.72" x2="311.64" y2="191.72"/><line class="cls-12" x1="1820.39" y1="186.81" x2="314.47" y2="186.81"/><line class="cls-12" x1="1823.22" y1="181.9" x2="317.31" y2="181.9"/><line class="cls-12" x1="1826.06" y1="176.99" x2="320.14" y2="176.99"/><line class="cls-12" x1="1828.89" y1="172.09" x2="322.98" y2="172.09"/><line class="cls-12" x1="1831.73" y1="167.18" x2="325.81" y2="167.18"/><line class="cls-12" x1="1834.56" y1="162.27" x2="328.64" y2="162.27"/><line class="cls-12" x1="1837.39" y1="157.36" x2="331.48" y2="157.36"/><line class="cls-12" x1="1840.23" y1="152.45" x2="334.31" y2="152.45"/><line class="cls-12" x1="1843.06" y1="147.54" x2="337.15" y2="147.54"/><line class="cls-12" x1="1845.9" y1="142.63" x2="339.98" y2="142.63"/><line class="cls-12" x1="1848.73" y1="137.72" x2="342.82" y2="137.72"/><line class="cls-12" x1="1851.57" y1="132.81" x2="345.65" y2="132.81"/><line class="cls-12" x1="1854.4" y1="127.9" x2="348.48" y2="127.9"/><line class="cls-12" x1="1857.23" y1="122.99" x2="351.32" y2="122.99"/><line class="cls-12" x1="1860.07" y1="118.08" x2="354.15" y2="118.08"/><line class="cls-12" x1="1862.9" y1="113.17" x2="356.99" y2="113.17"/><line class="cls-12" x1="1865.74" y1="108.26" x2="359.82" y2="108.26"/><line class="cls-12" x1="1868.57" y1="103.36" x2="362.66" y2="103.36"/><line class="cls-12" x1="1871.41" y1="98.45" x2="365.49" y2="98.45"/><line class="cls-12" x1="1874.24" y1="93.54" x2="368.33" y2="93.54"/><line class="cls-12" x1="1877.08" y1="88.63" x2="371.16" y2="88.63"/><line class="cls-12" x1="1879.91" y1="83.72" x2="373.99" y2="83.72"/><line class="cls-12" x1="1882.74" y1="78.81" x2="376.83" y2="78.81"/><line class="cls-12" x1="1885.58" y1="73.9" x2="379.66" y2="73.9"/><line class="cls-12" x1="1888.41" y1="68.99" x2="382.5" y2="68.99"/><line class="cls-12" x1="1891.25" y1="64.08" x2="385.33" y2="64.08"/><line class="cls-12" x1="1894.08" y1="59.17" x2="388.17" y2="59.17"/><line class="cls-12" x1="1896.92" y1="54.26" x2="391" y2="54.26"/><line class="cls-12" x1="1899.75" y1="49.35" x2="393.83" y2="49.35"/><line class="cls-12" x1="1902.58" y1="44.44" x2="396.67" y2="44.44"/><line class="cls-12" x1="1905.42" y1="39.53" x2="399.5" y2="39.53"/><line class="cls-12" x1="1908.25" y1="34.63" x2="402.34" y2="34.63"/><line class="cls-12" x1="1911.09" y1="29.72" x2="405.17" y2="29.72"/><line class="cls-12" x1="1913.92" y1="24.81" x2="408.01" y2="24.81"/><line class="cls-12" x1="1916.76" y1="19.9" x2="410.84" y2="19.9"/><line class="cls-12" x1="1919.59" y1="14.99" x2="413.68" y2="14.99"/><line class="cls-12" x1="1922.43" y1="10.08" x2="416.51" y2="10.08"/><line class="cls-12" x1="1925.26" y1="5.17" x2="419.34" y2="5.17"/><line class="cls-12" x1="1928.09" y1="0.26" x2="422.18" y2="0.26"/></g></g></g><g id="Content"><g class="cls-13"><path class="cls-14" d="M457,334.9H595.76a15.82,15.82,0,0,0,15.82-15.82V280.92"/><path class="cls-15" d="M457,334.9H595.76a15.82,15.82,0,0,0,15.82-15.82V280.92"/><path class="cls-16" d="M457,334.9H595.76a15.82,15.82,0,0,0,15.82-15.82V280.92"/><path class="cls-14" d="M457.15,357.55H595.93c22.28,0,38.27-19.15,38.27-39.69v-36"/><path class="cls-15" d="M457.15,357.55H595.93c22.28,0,38.27-19.15,38.27-39.69v-36"/><path class="cls-16" d="M457.15,357.55H595.93c22.28,0,38.27-19.15,38.27-39.69v-36"/></g><use width="17.37" height="17.37" transform="translate(596.1 323.21)" xlink:href="#Token_Shares"/><path class="cls-17" d="M517.76,331.1h79.09a18.26,18.26,0,0,0,18.21-18.21V286.67"/><path class="cls-17" d="M517.76,354.44H606.3a30.18,30.18,0,0,0,30.09-30.09V286.67"/><rect class="cls-9" x="503.25" y="323.6" width="10.26" height="45.07"/><rect class="cls-18" x="503.25" y="323.6" width="10.26" height="45.07"/><path class="cls-9" d="M648,284.18a2.68,2.68,0,0,1-2.83,2.49H600.65a2.51,2.51,0,1,1,0-5h44.52A2.68,2.68,0,0,1,648,284.18Z"/><path class="cls-18" d="M648,284.18a2.68,2.68,0,0,1-2.83,2.49H600.65a2.51,2.51,0,1,1,0-5h44.52A2.68,2.68,0,0,1,648,284.18Z"/><path class="cls-19" d="M615,331.23c2.47-3.55,3.31-8.29,3.31-11.87v-19.6"/><path class="cls-19" d="M614.65,323.92c1.11-4.09.6-10.05.6-13.63"/><path class="cls-19" d="M611.32,362.28c-4.39,2.12-9.54,2.8-14.71,2.8H579.38"/><path class="cls-19" d="M606.65,360a55.5,55.5,0,0,1-11.75,1.05h-4"/><use width="17.37" height="17.37" transform="translate(607.47 343.18)" xlink:href="#CHF_Token"/><polyline class="cls-20" points="503.25 323.71 503.5 327.22 503.27 341.68 513.5 324.02"/><polyline class="cls-21" points="248.5 474.2 248.5 55.95 499.3 55.95 499.3 474.2"/><polyline class="cls-18" points="248.5 474.2 248.5 55.95 499.3 55.95 499.3 474.2"/><rect class="cls-22" x="277.82" y="273.81" width="39.21" height="124"/><rect class="cls-23" x="277.82" y="273.81" width="39.21" height="124"/><polyline class="cls-20" points="291.34 293.99 278.01 317.94 277.67 359.01 305.14 311.86"/><g class="cls-24"><path class="cls-14" d="M297.42,303.24H248.54A31.84,31.84,0,0,1,216.8,271.5V229.31"/><path class="cls-15" d="M297.42,303.24H248.54A31.84,31.84,0,0,1,216.8,271.5V229.31"/><path class="cls-16" d="M297.42,303.24H248.54A31.84,31.84,0,0,1,216.8,271.5V229.31"/></g><rect class="cls-22" x="600.66" y="178.35" width="44.62" height="79.5" rx="2.83"/><rect class="cls-18" x="600.66" y="178.35" width="44.62" height="79.5" rx="2.83"/><rect class="cls-18" x="619.11" y="181.25" width="7.7" height="2" rx="0.85"/><rect class="cls-9" x="603.69" y="185.91" width="38.54" height="61.2"/><rect class="cls-18" x="603.69" y="185.91" width="38.54" height="61.2"/><rect class="cls-25" x="603.69" y="185.91" width="38.54" height="61.2"/><rect class="cls-18" x="603.69" y="185.91" width="38.54" height="61.2"/><rect class="cls-18" x="606.57" y="188.55" width="32.79" height="31.88"/><polyline class="cls-18" points="606.57 216.86 609.54 210.39 611.33 213.92 613.35 206.47 615.32 213.99 617.63 202.06 619.83 210.6 624.26 205.31 625.98 213.92 628.99 196.6 631.26 206.63 635.07 196.31"/><path class="cls-26" d="M635.82,194.27a10.79,10.79,0,0,0,.54,3.48L635,196.58h-1.82A10.77,10.77,0,0,0,635.82,194.27Z"/><polygon class="cls-27" points="606.57 216.86 609.54 210.39 611.33 213.92 613.35 206.47 615.32 213.99 617.63 202.06 619.83 210.6 624.26 205.31 625.98 213.92 628.99 196.6 631.26 206.63 635.18 196.03 635.18 220.43 606.57 220.43 606.57 216.86"/><circle class="cls-18" cx="622.97" cy="252.58" r="2.81"/><rect class="cls-28" x="447.65" y="41.29" width="14.66" height="14.66" transform="translate(909.96 97.23) rotate(180)"/><rect class="cls-28" x="466.14" y="41.29" width="14.66" height="14.66" transform="translate(946.95 97.23) rotate(180)"/><rect class="cls-28" x="484.64" y="41.29" width="14.66" height="14.66" transform="translate(983.94 97.23) rotate(180)"/><polygon class="cls-20" points="277.82 397.81 301.39 437.17 499.02 437.17 499.02 397.81 277.82 397.81"/><line class="cls-29" x1="91.52" y1="181.41" x2="36.26" y2="181.41"/><line class="cls-30" x1="197.55" y1="181.41" x2="164.58" y2="181.41"/><circle class="cls-9" cx="197.55" cy="181.41" r="1.65"/><circle class="cls-9" cx="164.58" cy="181.41" r="1.65"/><use width="17.37" height="17.37" transform="translate(162.47 159.97)" xlink:href="#Token_Shares"/><use width="17.37" height="17.37" transform="translate(173.71 159.97)" xlink:href="#Token_Shares"/><text class="cls-31" transform="translate(276.67 82.28)">ww<tspan class="cls-32" x="12.74" y="0">w</tspan><tspan x="18.86" y="0">.compa</tspan><tspan class="cls-33" x="45.22" y="0">n</tspan><tspan class="cls-34" x="49.78" y="0">y</tspan><tspan x="53.58" y="0">.co</tspan><tspan class="cls-35" x="64.18" y="0">m/</tspan><tspan x="74.86" y="0">i</tspan><tspan class="cls-33" x="77.14" y="0">n</tspan><tspan class="cls-36" x="81.7" y="0">v</tspan><tspan class="cls-37" x="85.94" y="0">estors</tspan></text><text class="cls-38" transform="translate(330.34 139.63) scale(0.91 1)">Hello!</text><text class="cls-39" transform="translate(277.1 120.19)">INVES<tspan class="cls-40" x="27.63" y="0">T</tspan><tspan x="32.92" y="0">OR REL</tspan><tspan class="cls-41" x="65.67" y="0">A</tspan><tspan x="71.54" y="0">TIONS</tspan></text><text class="cls-39" transform="translate(277.1 258.93)">BUY OR SELL</text><rect class="cls-22" x="317.12" y="273.81" width="190.38" height="124"/><rect class="cls-23" x="317.12" y="273.81" width="190.38" height="124"/><rect class="cls-18" x="277.1" y="134.17" width="39.01" height="39.01"/><rect class="cls-18" x="277.1" y="185.86" width="193.64" height="43.23"/><rect class="cls-18" x="257.16" y="71.8" width="234.81" height="15.06" rx="5.67"/><line class="cls-42" x1="330.33" y1="149.08" x2="470.74" y2="149.08"/><line class="cls-42" x1="330.33" y1="160.85" x2="470.74" y2="160.85"/><line class="cls-42" x1="330.33" y1="172.61" x2="444.92" y2="172.61"/><polyline class="cls-18" points="277.1 224.25 296.17 215.49 307.68 220.27 320.65 210.17 333.31 220.36 348.15 204.18 362.24 215.78 390.68 208.59 401.77 220.27 421.05 196.79 435.67 210.38 462.9 194.8"/><path class="cls-26" d="M464.94,193.63a11.74,11.74,0,0,0-2,3.27l-.34-2-1.51-1.27A11.68,11.68,0,0,0,464.94,193.63Z"/><polygon class="cls-43" points="277.1 224.25 296.17 215.49 307.68 220.27 320.65 210.17 333.31 220.36 348.15 204.18 362.24 215.78 390.68 208.59 401.77 220.27 421.05 196.79 435.67 210.38 463.14 194.66 463.14 229.1 277.1 229.1 277.1 224.25"/><line class="cls-18" x1="458.89" y1="44.71" x2="451.07" y2="52.53"/><line class="cls-18" x1="479" y1="48.62" x2="467.95" y2="48.62"/><line class="cls-18" x1="495.88" y1="44.71" x2="488.06" y2="52.53"/><line class="cls-18" x1="495.88" y1="52.53" x2="488.06" y2="44.71"/><text class="cls-44" transform="translate(348.74 377.74) scale(0.91 1)">T<tspan class="cls-45" x="4.34" y="0">o</tspan><tspan class="cls-46" x="9.29" y="0">k</tspan><tspan class="cls-47" x="13.86" y="0">enized </tspan><tspan class="cls-45"><tspan x="7.66" y="10">Shares</tspan></tspan></text><text class="cls-44" transform="translate(437.11 377.74) scale(0.91 1)">T<tspan class="cls-45" x="4.34" y="0">o</tspan><tspan class="cls-46" x="9.29" y="0">k</tspan><tspan class="cls-47" x="13.86" y="0">enized </tspan><tspan class="cls-45"><tspan x="-3.89" y="10">Swiss </tspan><tspan class="cls-46" x="19.83" y="10">F</tspan><tspan class="cls-48" x="24.48" y="10">r</tspan><tspan x="28.04" y="10">ancs</tspan></tspan></text><circle class="cls-18" cx="267.77" cy="79.23" r="3.65"/><ellipse class="cls-18" cx="267.77" cy="79.23" rx="1.31" ry="3.65"/><line class="cls-18" x1="264.12" y1="79.23" x2="271.43" y2="79.23"/><rect class="cls-22" x="73.28" y="137.4" width="51.81" height="56.48"/><rect class="cls-23" x="73.28" y="137.4" width="51.81" height="56.48"/><rect class="cls-9" x="80.98" y="146.59" width="36.41" height="38.83" rx="5.67"/><rect class="cls-42" x="80.98" y="146.59" width="36.41" height="38.83" rx="5.67"/><rect class="cls-9" x="331.54" y="324.02" width="72.06" height="38.62" rx="5.67"/><rect class="cls-9" x="419.91" y="324.02" width="72.06" height="38.62" rx="5.67"/><rect class="cls-22" x="125.08" y="137.4" width="43.42" height="56.48"/><rect class="cls-23" x="125.08" y="137.4" width="43.42" height="56.48"/><use width="17.37" height="17.37" transform="translate(184.94 159.97)" xlink:href="#Token_Shares"/><use width="29.57" height="17.96" transform="translate(73.13 159.53)" xlink:href="#Aktie"/><use width="29.57" height="17.96" transform="translate(38.35 159.53)" xlink:href="#Aktie"/><use width="29.57" height="17.96" transform="translate(108.04 159.53)" xlink:href="#Aktie"/><rect class="cls-22" x="117.37" y="144.02" width="24.05" height="43.24"/><use width="17.37" height="17.37" transform="translate(207.89 252.6)" xlink:href="#Token_Shares"/><line class="cls-49" x1="225.12" y1="261.28" x2="225.12" y2="260.78"/><line class="cls-50" x1="225.12" y1="258.72" x2="225.12" y2="213.41"/><line class="cls-49" x1="225.12" y1="212.38" x2="225.12" y2="211.88"/><line class="cls-49" x1="222.31" y1="237.87" x2="222.31" y2="238.37"/><line class="cls-51" x1="222.31" y1="240.35" x2="222.31" y2="248.28"/><line class="cls-49" x1="222.31" y1="249.27" x2="222.31" y2="249.77"/><circle class="cls-9" cx="297.42" cy="303.24" r="10.54"/><g class="cls-52"><use width="17.37" height="17.37" transform="translate(294.74 328.65)" xlink:href="#Token_Shares"/></g><path class="cls-9" d="M231.34,226.46a2.68,2.68,0,0,1-2.83,2.49H205.44a2.52,2.52,0,1,1,0-5h23.07A2.69,2.69,0,0,1,231.34,226.46Z"/><path class="cls-18" d="M231.34,226.46a2.68,2.68,0,0,1-2.83,2.49H205.44a2.52,2.52,0,1,1,0-5h23.07A2.69,2.69,0,0,1,231.34,226.46Z"/><polyline class="cls-20" points="73.28 182.06 73.28 193.88 109.83 193.88 115.66 183.87"/><text class="cls-53" transform="translate(362.2 304.34)">A<tspan class="cls-54" x="10.84" y="0">U</tspan><tspan class="cls-55" x="22.26" y="0">T</tspan><tspan class="cls-54" x="31.43" y="0">OM</tspan><tspan class="cls-56" x="57.82" y="0">A</tspan><tspan class="cls-55" x="68.04" y="0">T</tspan><tspan class="cls-57" x="77.22" y="0">ON</tspan></text><circle class="cls-26" cx="156.86" cy="164.97" r="3.7"/><rect class="cls-26" x="133.17" y="161.49" width="7.4" height="7.4"/><line class="cls-58" x1="143.83" y1="164.97" x2="149.55" y2="164.97"/><polygon class="cls-26" points="147.82 167.1 147.47 166.72 149.35 164.97 147.47 163.22 147.82 162.84 150.12 164.97 147.82 167.1"/><line class="cls-59" x1="125.08" y1="139.65" x2="125.08" y2="188.98"/><path class="cls-17" d="M303.71,298.68h-56.3a31.83,31.83,0,0,1-31.74-31.74"/><g class="cls-52"><use width="17.37" height="17.37" transform="translate(295.62 299.58)" xlink:href="#Token_Shares"/></g><path class="cls-60" d="M635,272c.77-12.54-1.29-25.26-5.09-31.25"/><polygon class="cls-61" points="637.22 270.29 636.84 269.91 634.95 271.79 633.22 269.76 632.81 270.12 634.92 272.58 637.22 270.29"/><polygon class="cls-61" points="632.66 241.17 632.51 241.69 629.96 240.93 629.39 243.54 628.86 243.42 629.55 240.25 632.66 241.17"/><text class="cls-62" transform="translate(38.49 43.83)">1.<tspan class="cls-63"><tspan x="0" y="20">Setup</tspan></tspan></text><text class="cls-64" transform="translate(38.49 82.83) scale(0.91 1)">The compa<tspan class="cls-65" x="51.26" y="0">n</tspan><tspan x="57.06" y="0">y to</tspan><tspan class="cls-66" x="75.24" y="0">k</tspan><tspan class="cls-67" x="80.6" y="0">enizes some</tspan><tspan x="0" y="12" xml:space="preserve"> of its shares and adds an </tspan><tspan x="0" y="24">i</tspan><tspan class="cls-65" x="3.1" y="24">n</tspan><tspan class="cls-68" x="8.89" y="24">v</tspan><tspan class="cls-67" x="14.3" y="24">estor relations page to its </tspan><tspan x="0" y="36">website, using our tools.</tspan></text><text class="cls-62" transform="translate(552.31 84.46)">2.<tspan class="cls-69"><tspan x="0" y="20">T</tspan><tspan class="cls-70" x="9.09" y="20">r</tspan><tspan class="cls-71" x="16.13" y="20">ade</tspan></tspan></text><text class="cls-64" transform="translate(552.31 123.46) scale(0.91 1)">I<tspan class="cls-65" x="3.58" y="0">n</tspan><tspan class="cls-68" x="9.38" y="0">v</tspan><tspan class="cls-67" x="14.78" y="0">estors can buy and sell shares </tspan><tspan x="0" y="12">at a</tspan><tspan class="cls-72" x="17.67" y="12">n</tspan><tspan class="cls-67" x="23.46" y="12">y time directly on the </tspan><tspan x="0" y="24">website, using the Aktionariat app </tspan><tspan x="0" y="36">or a</tspan><tspan class="cls-72" x="18.42" y="36">n</tspan><tspan class="cls-67" x="24.22" y="36">y other compatible wallet.</tspan></text><text class="cls-62" transform="translate(682.66 407.13)">3.<tspan class="cls-63"><tspan x="-45.88" y="20">Benefit</tspan></tspan></text><text class="cls-73" transform="translate(586.32 446.13) scale(0.91 1)">F<tspan class="cls-74" x="5.71" y="0">ounders, empl</tspan><tspan class="cls-75" x="72.74" y="0">oy</tspan><tspan class="cls-74" x="83.97" y="0">ees and </tspan><tspan class="cls-74" x="-33.39" y="12">i</tspan><tspan class="cls-65" x="-30.29" y="12">n</tspan><tspan class="cls-68" x="-24.5" y="12">v</tspan><tspan class="cls-67" x="-19.09" y="12">estors benefit as their shares </tspan><tspan class="cls-74" x="19.58" y="24">gain a tangible value.</tspan></text><path class="cls-76" d="M217.71,200.93V173.82c0-3.5-1.59-5.17-5.23-5.17h-3.39"/><polygon class="cls-77" points="219.92 199.14 219.53 198.77 217.71 200.72 215.9 198.77 215.5 199.14 217.71 201.52 219.92 199.14"/><g class="cls-78"><line class="cls-30" x1="116.12" y1="181.41" x2="62.73" y2="181.41"/></g><circle class="cls-9" cx="62.73" cy="181.41" r="1.65"/><circle class="cls-79" cx="619.61" cy="227.28" r="2.45"/><circle class="cls-80" cx="626.32" cy="227.28" r="2.45"/><circle class="cls-79" cx="619.61" cy="234.5" r="2.45"/><circle class="cls-80" cx="626.32" cy="234.5" r="2.45"/><rect class="cls-81" x="609.96" y="483.37" width="82.92" height="43.94"/><line class="cls-82" x1="629.72" y1="489.4" x2="629.72" y2="487.17"/><line class="cls-82" x1="629.72" y1="489.4" x2="629.72" y2="487.17"/><line class="cls-82" x1="640.31" y1="499.66" x2="642.54" y2="499.66"/><line class="cls-82" x1="640.31" y1="499.66" x2="642.54" y2="499.66"/><path class="cls-9" d="M661.58,498.23a1.19,1.19,0,0,0-1.19,1.19v-1.13a1.2,1.2,0,0,0-2.39,0V497.1a1.2,1.2,0,0,0-2.39,0v1.19a1.2,1.2,0,0,0-2.39,0v1.93h.12v0a1.45,1.45,0,0,0-1.4,1.4v2.93c0,2,2.38,3.31,2.38,3.31v3.66h6v-3.66a4.33,4.33,0,0,0,2.46-3.55v-4.92A1.19,1.19,0,0,0,661.58,498.23Z"/><path class="cls-83" d="M661.58,498.23a1.19,1.19,0,0,0-1.19,1.19v-1.13a1.2,1.2,0,0,0-2.39,0V497.1a1.2,1.2,0,0,0-2.39,0v1.19a1.2,1.2,0,0,0-2.39,0v1.93h.12v0a1.45,1.45,0,0,0-1.4,1.4v2.93c0,2,2.38,3.31,2.38,3.31v3.66h6v-3.66a4.33,4.33,0,0,0,2.46-3.55v-4.92A1.19,1.19,0,0,0,661.58,498.23Z"/><path class="cls-18" d="M661.58,498.23a1.19,1.19,0,0,0-1.19,1.19v-1.13a1.2,1.2,0,0,0-2.39,0V497.1a1.2,1.2,0,0,0-2.39,0v1.19a1.2,1.2,0,0,0-2.39,0v1.93h.12v0a1.45,1.45,0,0,0-1.4,1.4v2.93c0,2,2.38,3.31,2.38,3.31v3.66h6v-3.66a4.33,4.33,0,0,0,2.46-3.55v-4.92A1.19,1.19,0,0,0,661.58,498.23Z"/><path class="cls-18" d="M660.31,503.8a2.39,2.39,0,0,0-2.32,2.31,3.7,3.7,0,0,0-3.61-3.59h1.1a2.22,2.22,0,0,0,2.45-2.28h-4.52a1.45,1.45,0,0,0-1.47,1.41v2.93c0,2,2.38,3.31,2.38,3.31v3.66h6v-3.66a4.33,4.33,0,0,0,2.46-3.55v-2.9"/><path class="cls-18" d="M653.22,500.22v-1.93a1.2,1.2,0,0,1,2.39,0v1.93"/><path class="cls-18" d="M655.61,499V497.1a1.2,1.2,0,0,1,2.39,0V499"/><path class="cls-18" d="M660.39,499.85v-1.56a1.2,1.2,0,0,0-2.39,0v1.95a1.19,1.19,0,0,0,1.19,1.2h1.2"/><path class="cls-18" d="M662.77,501.44a1.19,1.19,0,1,1-2.38,0v-2a1.19,1.19,0,1,1,2.38,0Z"/><line class="cls-18" x1="657.36" y1="493.94" x2="657.36" y2="492.02"/><line class="cls-18" x1="657.36" y1="493.94" x2="657.36" y2="492.02"/><line class="cls-18" x1="651.05" y1="496.67" x2="649.69" y2="495.31"/><line class="cls-18" x1="651.05" y1="496.67" x2="649.69" y2="495.31"/><line class="cls-18" x1="648.51" y1="503.07" x2="646.59" y2="503.07"/><line class="cls-18" x1="648.51" y1="503.07" x2="646.59" y2="503.07"/><line class="cls-18" x1="651.25" y1="509.38" x2="649.89" y2="510.74"/><line class="cls-18" x1="651.25" y1="509.38" x2="649.89" y2="510.74"/><line class="cls-18" x1="663.95" y1="509.18" x2="665.31" y2="510.53"/><line class="cls-18" x1="663.95" y1="509.18" x2="665.31" y2="510.53"/><line class="cls-18" x1="666.48" y1="502.78" x2="668.4" y2="502.78"/><line class="cls-18" x1="666.48" y1="502.78" x2="668.4" y2="502.78"/><line class="cls-18" x1="663.75" y1="496.47" x2="665.11" y2="495.11"/><rect class="cls-28" x="653.22" y="511.55" width="8.36" height="15.65"/><path class="cls-9" d="M635.16,495.3h0a1.19,1.19,0,0,0-1.19,1.2v-2.43a1.2,1.2,0,0,0-2.39,0v-1.13a1.2,1.2,0,0,0-2.39,0v.36a1.2,1.2,0,0,0-2.39,0v8.41l-1.23-1.12-1-1a2.29,2.29,0,0,0-3.36.33c3.76,2.89,4,7.13,6.58,8.24v3.42h6.48v-3.7s2.06-.35,2.06-4.81v-6.58A1.15,1.15,0,0,0,635.16,495.3Z"/><path class="cls-9" d="M635.16,495.3h0a1.19,1.19,0,0,0-1.19,1.2v-2.43a1.2,1.2,0,0,0-2.39,0v-1.13a1.2,1.2,0,0,0-2.39,0v.36a1.2,1.2,0,0,0-2.39,0v8.41l-1.23-1.12-1-1a2.29,2.29,0,0,0-3.36.33c3.76,2.89,4,7.13,6.58,8.24v3.42h6.48v-3.7s2.06-.35,2.06-4.81v-6.58A1.15,1.15,0,0,0,635.16,495.3Z"/><path class="cls-84" d="M635.16,495.3h0a1.19,1.19,0,0,0-1.19,1.2v-2.43a1.2,1.2,0,0,0-2.39,0v-1.13a1.2,1.2,0,0,0-2.39,0v.36a1.2,1.2,0,0,0-2.39,0v8.41l-1.23-1.12-1-1a2.29,2.29,0,0,0-3.36.33c3.76,2.89,4,7.13,6.58,8.24v3.42h6.48v-3.7s2.06-.35,2.06-4.81v-6.58A1.15,1.15,0,0,0,635.16,495.3Z"/><path class="cls-18" d="M635.16,495.3h0a1.19,1.19,0,0,0-1.19,1.2v-2.43a1.2,1.2,0,0,0-2.39,0v-1.13a1.2,1.2,0,0,0-2.39,0v.36a1.2,1.2,0,0,0-2.39,0v8.41l-1.23-1.12-1-1a2.29,2.29,0,0,0-3.36.33c3.76,2.89,4,7.13,6.58,8.24v3.42h6.48v-3.7s2.06-.35,2.06-4.81v-6.58A1.15,1.15,0,0,0,635.16,495.3Z"/><line class="cls-82" x1="637.38" y1="507.09" x2="638.95" y2="508.66"/><line class="cls-82" x1="637.38" y1="507.09" x2="638.95" y2="508.66"/><line class="cls-82" x1="637.14" y1="492.34" x2="638.72" y2="490.76"/><path class="cls-18" d="M633.4,503.8a2.4,2.4,0,0,0-2.33,2.31,3.69,3.69,0,0,0-3.61-3.59"/><line class="cls-18" x1="629.72" y1="489.4" x2="629.72" y2="487.17"/><line class="cls-18" x1="629.72" y1="489.4" x2="629.72" y2="487.17"/><line class="cls-18" x1="622.4" y1="492.57" x2="620.82" y2="491"/><line class="cls-18" x1="622.4" y1="492.57" x2="620.82" y2="491"/><line class="cls-18" x1="619.46" y1="499.99" x2="617.23" y2="499.99"/><line class="cls-18" x1="619.46" y1="499.99" x2="617.23" y2="499.99"/><line class="cls-18" x1="622.63" y1="507.32" x2="621.05" y2="508.9"/><line class="cls-18" x1="622.63" y1="507.32" x2="621.05" y2="508.9"/><line class="cls-18" x1="637.38" y1="507.09" x2="638.95" y2="508.66"/><line class="cls-18" x1="637.38" y1="507.09" x2="638.95" y2="508.66"/><line class="cls-18" x1="640.31" y1="499.66" x2="642.54" y2="499.66"/><line class="cls-18" x1="640.31" y1="499.66" x2="642.54" y2="499.66"/><line class="cls-18" x1="637.14" y1="492.34" x2="638.72" y2="490.76"/><path class="cls-18" d="M626.76,501.71V493.3a1.2,1.2,0,0,1,2.39,0v7.21"/><path class="cls-18" d="M629.15,495v-2a1.2,1.2,0,0,1,2.39,0v2"/><path class="cls-18" d="M631.54,500.46v-6.39a1.2,1.2,0,0,1,2.39,0v2"/><path class="cls-18" d="M625.53,500.59l-1-1a2.29,2.29,0,0,0-3.36.33c3.76,2.89,4,7.13,6.58,8.24v3.42"/><path class="cls-18" d="M633.93,500.46v-4a1.19,1.19,0,0,1,1.19-1.2h0a1.15,1.15,0,0,1,1.15,1.16V503c0,4.46-2.06,4.81-2.06,4.81v3.7"/><rect class="cls-28" x="626.76" y="511.55" width="8.36" height="15.65"/><line class="cls-42" x1="614.34" y1="527.2" x2="697.26" y2="527.2"/><line class="cls-18" x1="695.62" y1="504.13" x2="697.44" y2="504.75"/><line class="cls-18" x1="695.62" y1="504.13" x2="697.44" y2="504.75"/><line class="cls-18" x1="695.08" y1="497.28" x2="696.8" y2="496.43"/><line class="cls-18" x1="695.08" y1="497.28" x2="696.8" y2="496.43"/><line class="cls-18" x1="689.84" y1="492.81" x2="690.46" y2="491"/><line class="cls-18" x1="689.84" y1="492.81" x2="690.46" y2="491"/><line class="cls-18" x1="682.99" y1="493.36" x2="682.14" y2="491.63"/><line class="cls-18" x1="682.99" y1="493.36" x2="682.14" y2="491.63"/><line class="cls-18" x1="691.16" y1="509.36" x2="692" y2="511.09"/><path class="cls-28" d="M689.44,501.69s-.61,1.41-1.46,1.78a1.86,1.86,0,0,1-2.36-.94,1.73,1.73,0,0,1,.91-2.29,2.87,2.87,0,0,1,2.2.2c.51.17,1.52.47,1.89-.36s-.17-1.19-.62-1.41l-2.81-1.34-2.22.94L683.62,492a1.2,1.2,0,0,0-1.41-.92h0a1.21,1.21,0,0,0-.92,1.42l.42,2-.09,0-.23-.72a1.19,1.19,0,0,0-1.49-.79,1.21,1.21,0,0,0-.7.59,1.13,1.13,0,0,0-.08.9l.43,1.37,0,0a1.22,1.22,0,0,0-1.26-.21,1.19,1.19,0,0,0-.63,1.57l3.12,7.39-.13,9.71,6.57-2.78.17-4.74,2.91-1.43s.89-2.46,1.17-3.2a1.08,1.08,0,0,0-.53-1.55C690.29,500.35,689.86,500.66,689.44,501.69Z"/><path class="cls-85" d="M689.44,501.69s-.61,1.41-1.46,1.78a1.86,1.86,0,0,1-2.36-.94,1.73,1.73,0,0,1,.91-2.29,2.87,2.87,0,0,1,2.2.2c.51.17,1.52.47,1.89-.36s-.17-1.19-.62-1.41l-2.81-1.34-2.22.94L683.62,492a1.2,1.2,0,0,0-1.41-.92h0a1.21,1.21,0,0,0-.92,1.42l.42,2-.09,0-.23-.72a1.19,1.19,0,0,0-1.49-.79,1.21,1.21,0,0,0-.7.59,1.13,1.13,0,0,0-.08.9l.43,1.37,0,0a1.22,1.22,0,0,0-1.26-.21,1.19,1.19,0,0,0-.63,1.57l3.12,7.39-.13,9.71,6.57-2.78.17-4.74,2.91-1.43s.89-2.46,1.17-3.2a1.08,1.08,0,0,0-.53-1.55C690.29,500.35,689.86,500.66,689.44,501.69Z"/><path class="cls-18" d="M689.44,501.69s-.61,1.41-1.46,1.78a1.86,1.86,0,0,1-2.36-.94,1.73,1.73,0,0,1,.91-2.29,2.87,2.87,0,0,1,2.2.2c.51.17,1.52.47,1.89-.36s-.17-1.19-.62-1.41l-2.81-1.34-2.22.94L683.62,492a1.2,1.2,0,0,0-1.41-.92h0a1.21,1.21,0,0,0-.92,1.42l.42,2-.09,0-.23-.72a1.19,1.19,0,0,0-1.49-.79,1.21,1.21,0,0,0-.7.59,1.13,1.13,0,0,0-.08.9l.43,1.37,0,0a1.22,1.22,0,0,0-1.26-.21,1.19,1.19,0,0,0-.63,1.57l3.12,7.39-.13,9.71,6.57-2.78.17-4.74,2.91-1.43s.89-2.46,1.17-3.2a1.08,1.08,0,0,0-.53-1.55C690.29,500.35,689.86,500.66,689.44,501.69Z"/><path class="cls-18" d="M681.93,495.53l-.65-3a1.2,1.2,0,0,1,.93-1.42h0a1.19,1.19,0,0,1,1.41.91l1.46,6.77"/><path class="cls-18" d="M679.71,496.33l-.59-1.84a1.17,1.17,0,0,1,.07-.9,1.2,1.2,0,0,1,.7-.59,1.19,1.19,0,0,1,1.49.79l.44,1.38,1.69,5.16"/><rect class="cls-28" x="679.66" y="511.55" width="8.36" height="15.65"/><path class="cls-18" d="M687.16,511.51l.17-4.74,2.91-1.43s.89-2.46,1.17-3.2a1.08,1.08,0,0,0-.53-1.55c-.59-.24-1,.07-1.44,1.1,0,0-.61,1.41-1.46,1.78a1.86,1.86,0,0,1-2.36-.94,1.73,1.73,0,0,1,.91-2.29,2.87,2.87,0,0,1,2.2.2c.51.17,1.52.47,1.89-.36s-.17-1.19-.62-1.41l-2.81-1.34-2.22.94"/><path class="cls-18" d="M679.49,495.83a1.22,1.22,0,0,0-1.26-.21,1.2,1.2,0,0,0-.63,1.57l3.12,7.39-.13,7"/><line class="cls-18" x1="679.53" y1="495.87" x2="681.82" y2="501.65"/><g class="cls-86"><use width="17.37" height="17.37" transform="translate(344.64 359.82)" xlink:href="#Token_Shares"/><use width="17.37" height="17.37" transform="translate(344.64 350.91)" xlink:href="#Token_Shares"/><use width="17.37" height="17.37" transform="translate(344.64 342.01)" xlink:href="#Token_Shares"/><use width="17.37" height="17.37" transform="translate(344.64 333.1)" xlink:href="#Token_Shares"/><use width="17.37" height="17.37" transform="translate(364.63 359.82)" xlink:href="#Token_Shares"/><use width="17.37" height="17.37" transform="translate(364.63 350.91)" xlink:href="#Token_Shares"/><use width="17.37" height="17.37" transform="translate(364.63 342.01)" xlink:href="#Token_Shares"/><use width="17.37" height="17.37" transform="translate(364.63 333.1)" xlink:href="#Token_Shares"/></g><g class="cls-87"><use width="17.37" height="17.37" transform="translate(440 359.45)" xlink:href="#CHF_Token"/><use width="17.37" height="17.37" transform="translate(440 350.78)" xlink:href="#CHF_Token"/><use width="17.37" height="17.37" transform="translate(440 342.11)" xlink:href="#CHF_Token"/><use width="17.37" height="17.37" transform="translate(440 333.43)" xlink:href="#CHF_Token"/><use width="17.37" height="17.37" transform="translate(460.18 359.45)" xlink:href="#CHF_Token"/><use width="17.37" height="17.37" transform="translate(460.18 350.78)" xlink:href="#CHF_Token"/><use width="17.37" height="17.37" transform="translate(460.18 342.11)" xlink:href="#CHF_Token"/><use width="17.37" height="17.37" transform="translate(460.18 333.43)" xlink:href="#CHF_Token"/></g><g class="cls-88"><path class="cls-26" d="M413.68,342.83a15.13,15.13,0,0,1-.75,4.15H410.7a14.77,14.77,0,0,1-.75-4.15l-2.34-.3a15.08,15.08,0,0,1-1.76,3.84l-2.16-.55a14.67,14.67,0,0,1,.31-4.21l-2.2-.87a15,15,0,0,1-2.66,3.28l-1.95-1.08a15.19,15.19,0,0,1,1.34-4l-1.91-1.39a14.59,14.59,0,0,1-3.39,2.52l-1.62-1.53a15,15,0,0,1,2.3-3.54l-1.51-1.82a15,15,0,0,1-3.91,1.6l-1.19-1.89a14.88,14.88,0,0,1,3.1-2.85l-1-2.14a14.81,14.81,0,0,1-4.18.57l-.69-2.12a15.08,15.08,0,0,1,3.72-2L387.8,322a15.18,15.18,0,0,1-4.19-.49l-.14-2.23a15.25,15.25,0,0,1,4.1-1l.15-2.36a14.65,14.65,0,0,1-3.94-1.52l.42-2.18a14.89,14.89,0,0,1,4.22,0l.73-2.25a15,15,0,0,1-3.44-2.44l1-2a14.82,14.82,0,0,1,4.07,1.09l1.27-2a15,15,0,0,1-2.72-3.23l1.42-1.72a15,15,0,0,1,3.67,2.07l1.73-1.61a14.87,14.87,0,0,1-1.84-3.8l1.8-1.31a14.87,14.87,0,0,1,3.05,2.92l2.07-1.14a14.78,14.78,0,0,1-.83-4.14l2.07-.82a14.89,14.89,0,0,1,2.23,3.59l2.28-.59a15,15,0,0,1,.23-4.21l2.21-.28a15,15,0,0,1,1.26,4H413a15,15,0,0,1,1.27-4l2.21.28a15,15,0,0,1,.22,4.21l2.29.59a14.84,14.84,0,0,1,2.22-3.59l2.07.82a14.78,14.78,0,0,1-.83,4.14l2.07,1.14a14.87,14.87,0,0,1,3.05-2.92l1.8,1.31a14.84,14.84,0,0,1-1.83,3.8l1.72,1.61a14.83,14.83,0,0,1,3.68-2.07l1.42,1.72a15.32,15.32,0,0,1-2.73,3.23l1.27,2a14.79,14.79,0,0,1,4.08-1.09l.95,2a15.42,15.42,0,0,1-3.44,2.44l.73,2.25a14.89,14.89,0,0,1,4.22,0l.41,2.18A14.53,14.53,0,0,1,435.9,316l.15,2.36a15.07,15.07,0,0,1,4.1,1l-.14,2.23a15.13,15.13,0,0,1-4.19.49l-.44,2.31a15.44,15.44,0,0,1,3.72,2l-.69,2.12a14.83,14.83,0,0,1-4.19-.57l-1,2.14a14.88,14.88,0,0,1,3.1,2.85l-1.19,1.89a15,15,0,0,1-3.91-1.6l-1.5,1.82a15.26,15.26,0,0,1,2.29,3.54l-1.62,1.53a15,15,0,0,1-3.39-2.52l-1.91,1.39a15.19,15.19,0,0,1,1.34,4L424.48,344a15,15,0,0,1-2.66-3.28l-2.19.87a15,15,0,0,1,.3,4.21l-2.15.55a14.75,14.75,0,0,1-1.76-3.84Zm13.72-24.17a15.59,15.59,0,1,0-15.59,15.59A15.59,15.59,0,0,0,427.4,318.66Z"/><path class="cls-26" d="M413.68,378.1a13.32,13.32,0,0,1-.65,4h-2.44a13.32,13.32,0,0,1-.65-4l-2.32-.5a13.11,13.11,0,0,1-2.23,3.43l-2.23-1a13.22,13.22,0,0,1,1-4l-1.92-1.39a13,13,0,0,1-3.43,2.22l-1.63-1.81a13.2,13.2,0,0,1,2.56-3.19l-1.18-2.05a13.16,13.16,0,0,1-4.05.63l-.75-2.31a13.11,13.11,0,0,1,3.64-1.87l-.24-2.36a12.83,12.83,0,0,1-3.95-1.07l.25-2.42a13.19,13.19,0,0,1,4.09-.23l.73-2.25a13.11,13.11,0,0,1-3.17-2.58l1.21-2.11a13.16,13.16,0,0,1,3.83,1.45l1.58-1.76a12.91,12.91,0,0,1-1.84-3.65l2-1.43a12.88,12.88,0,0,1,2.91,2.89l2.16-1a13,13,0,0,1-.2-4.09l2.38-.5a13.43,13.43,0,0,1,1.48,3.81H413a13.11,13.11,0,0,1,1.47-3.81l2.39.5a13.24,13.24,0,0,1-.21,4.09l2.17,1a12.83,12.83,0,0,1,2.9-2.89l2,1.43a12.93,12.93,0,0,1-1.85,3.65l1.59,1.76a13.09,13.09,0,0,1,3.82-1.45l1.22,2.11a13,13,0,0,1-3.18,2.58l.74,2.25a13.15,13.15,0,0,1,4.08.23l.26,2.42a13,13,0,0,1-3.95,1.07l-.25,2.36a13.11,13.11,0,0,1,3.64,1.87l-.75,2.31a13.09,13.09,0,0,1-4-.63l-1.19,2.05a13,13,0,0,1,2.57,3.19l-1.63,1.81a12.87,12.87,0,0,1-3.44-2.22l-1.92,1.39a12.93,12.93,0,0,1,1,4l-2.22,1A12.9,12.9,0,0,1,416,377.6Zm3.47-14.49a5.34,5.34,0,1,0-5.34,5.33A5.34,5.34,0,0,0,417.15,363.61Z"/></g><rect class="cls-59" x="331.54" y="324.02" width="72.06" height="38.62" rx="5.67"/><rect class="cls-59" x="419.91" y="324.02" width="72.06" height="38.62" rx="5.67"/><g id="Ebene_13" data-name="Ebene 13"><g id="Ebene_5" data-name="Ebene 5"><g class="cls-89"><circle class="cls-42" cx="296.51" cy="176.5" r="14.01"/><path class="cls-90" d="M297,171.24h0a4.82,4.82,0,0,1-4.82-4.82V156.16h9.65v10.26A4.82,4.82,0,0,1,297,171.24Z"/><path class="cls-26" d="M292.25,158.5s2.58,6.7,5.61,6.46c4.69-.37,3.91-6.19,3.91-6.19s-1.77,3.35-4.65,3.36C293.91,162.13,292.25,158.5,292.25,158.5Z"/><path class="cls-26" d="M289.59,155.17l-1.44-6c-.84-3.07,2.8-4.94,5.06-5.07l7.84-.46c2.4-.14,5.35,1.32,4.34,4.91l-.39,5.34Z"/><path class="cls-90" d="M291.54,156.58c-1.56,1.17-4.66-3.56-3.15-4.81s2.64.83,2.64.83l.58,1.64-.05,1.81.12.51Z"/><path class="cls-1" d="M289.19,153.2s1-.41,1.87,1.1"/><path class="cls-1" d="M290.51,153.57s-1.12.68-.3,1.56"/><path class="cls-90" d="M304.4,149.48A35.27,35.27,0,0,1,304,157a7.09,7.09,0,0,1-2.81,4.61l-.27.2a5.13,5.13,0,0,1-5.48.39h0a7.1,7.1,0,0,1-3.53-4.52,53.31,53.31,0,0,1-1.18-7.43s-1.08-7.62,6.28-7.91S304.4,149.48,304.4,149.48Z"/><path class="cls-26" d="M304,140.8c-2.44-1.51-7-.08-9.43,1.22,0-.76-.45-.65-.45-.65-4.36,1.45-3,4.87-3,4.87l0,0c-.4,1-.88,3.2-.08,7a34.44,34.44,0,0,0,.81-6.76c2,.75,7.52,2.54,11,1.16a38,38,0,0,0,1.56,4.82,15.87,15.87,0,0,0-.36-5.51,4.26,4.26,0,0,0,.58-.55S307.44,143,304,140.8Z"/><path class="cls-1" d="M299.6,152.94l.15,2.47a.93.93,0,0,1,0,.24.64.64,0,0,1-.73.39l-.65-.13"/><path class="cls-1" d="M296.24,152.21a.64.64,0,1,1-1.27.08.64.64,0,1,1,1.27-.08Z"/><path class="cls-1" d="M302.15,151.87a.62.62,0,0,1-.6.67.64.64,0,1,1-.07-1.27A.62.62,0,0,1,302.15,151.87Z"/><line class="cls-1" x1="296.8" y1="152.88" x2="295.28" y2="154.02"/><line class="cls-1" x1="300.55" y1="152.66" x2="302.02" y2="153.63"/><path class="cls-1" d="M296.6,156.32a2.2,2.2,0,0,0,2.08.76,18.62,18.62,0,0,0,1.9-.2"/><line class="cls-1" x1="299.33" y1="160.46" x2="299.37" y2="161.15"/><path class="cls-18" d="M298.33,152.75a2.76,2.76,0,1,1-2.92-2.6A2.76,2.76,0,0,1,298.33,152.75Z"/><path class="cls-91" d="M305.12,152.35a2.76,2.76,0,1,1-2.92-2.6A2.76,2.76,0,0,1,305.12,152.35Z"/><path class="cls-18" d="M298.33,152.75a.91.91,0,0,1,1.27-.08"/><line class="cls-42" x1="292.81" y1="153.07" x2="291.14" y2="153.17"/><path class="cls-26" d="M300.59,164.69c-2.69.53-3.9.7-6.25-.46a9.17,9.17,0,0,1-2.83-3.82s-.22-3.65-.22-3.66c-.15-.25.22-.87-.06-1,.32-.26-.59-3.1-.27-3.36s-.15-1.22.28-1.56a24.3,24.3,0,0,0,1.47,6.06c.94,2,1.48,2.56,3.07,2.72s2.1-1.18,3.56-1.29c1.25,0,3.18,1.85,4.65-.89C304.41,162,302.82,164.23,300.59,164.69Z"/></g></g></g><path class="cls-76" d="M610.76,272c-.78-12.54,1.29-25.26,5.08-31.25"/><polygon class="cls-77" points="612.91 270.12 612.5 269.76 610.77 271.79 608.88 269.91 608.5 270.29 610.8 272.58 612.91 270.12"/><polygon class="cls-77" points="616.86 243.42 616.33 243.54 615.76 240.94 613.21 241.69 613.06 241.17 616.17 240.25 616.86 243.42"/></g></g></svg>